<svg width="85" height="85" viewBox="0 0 85 85" fill="none" xmlns="http://www.w3.org/2000/svg">
<rect width="85" height="85" rx="42.5" fill="#FC2947"/>
<rect width="85" height="85" rx="42.5" fill="url(#paint0_linear_348_471)" fill-opacity="0.2"/>
<g clip-path="url(#clip0_348_471)">
<path d="M30.0554 41.2309L32.1206 62.0873L27.231 58.6091C27.1839 58.5755 27.1439 58.5326 27.1134 58.483C27.083 58.4334 27.0627 58.3781 27.0537 58.3203L23.9846 38.0111C23.9814 37.9796 23.9864 37.9478 23.9992 37.9189C24.012 37.89 24.032 37.865 24.0574 37.8465C24.0827 37.828 24.1124 37.8166 24.1435 37.8135C24.1746 37.8103 24.2059 37.8156 24.2344 37.8287L30.0554 41.2309Z" fill="white"/>
<path d="M41.7349 48.0733V68.9297L36.7005 65.3501V65.3451L35.6142 44.4887L41.7349 48.0733Z" fill="white"/>
<path d="M42.7738 48.0733L48.892 44.4887L47.8082 65.3451L42.7738 68.9297V48.0733Z" fill="white"/>
<path d="M42.2369 15.5765V18.6164C36.8815 18.6214 31.677 20.4166 27.4287 23.7242C23.1804 27.0319 20.1251 31.6676 18.7354 36.9142L20.5809 36.6254C20.6415 36.6153 20.7034 36.6176 20.7631 36.6321C20.8228 36.6466 20.8791 36.673 20.9286 36.7098C20.9781 36.7466 21.0199 36.793 21.0515 36.8464C21.0832 36.8998 21.104 36.959 21.1128 37.0206L21.5798 40.0783L23.9971 55.9264L24.4241 58.713C24.4529 58.9074 24.4047 59.1054 24.2901 59.2639C24.1754 59.4224 24.0037 59.5285 23.8123 59.5591L20.4061 60.0936C20.1976 60.1257 19.985 60.0729 19.8148 59.9466C19.6445 59.8204 19.5303 59.631 19.4971 59.4198L19.2848 58.0138C19.1025 58.0417 18.9202 58.0594 18.7354 58.0746C16.5081 58.214 14.3063 57.5309 12.5368 56.1516C10.7673 54.7723 9.54961 52.79 9.1088 50.5708C8.66799 48.3516 9.0338 46.0456 10.1386 44.0787C11.2435 42.1118 13.0127 40.6171 15.1195 39.8705C15.9478 33.1658 19.1598 26.9981 24.1526 22.5252C29.1454 18.0522 35.5758 15.5814 42.2369 15.5765Z" fill="white"/>
<path d="M56.3812 32.8939H56.2913C56.1148 32.0591 55.6616 31.3107 55.0073 30.7737C54.3529 30.2367 53.5369 29.9434 52.6952 29.9427H52.6203C52.4471 29.1039 51.9946 28.3512 51.3389 27.811C50.6831 27.2708 49.8641 26.976 49.0193 26.9762H48.9194C48.7299 25.9862 48.2689 25.0706 47.5895 24.3345C46.91 23.5984 46.0396 23.0716 45.0783 22.8147C44.117 22.5578 43.1038 22.5812 42.155 22.8822C41.2062 23.1833 40.3604 23.7497 39.7147 24.5164C38.9866 24.1393 38.1752 23.9582 37.3583 23.9906C36.5414 24.023 35.7465 24.2676 35.0496 24.7012C34.3527 25.1348 33.7773 25.7427 33.3786 26.4666C32.9798 27.1906 32.7711 28.0063 32.7724 28.8356C32.7724 28.9065 32.7724 28.9724 32.7724 29.0408C32.4535 28.9513 32.1243 28.9053 31.7935 28.904C30.8207 28.906 29.8884 29.2991 29.2008 29.9971C28.5132 30.6951 28.1263 31.6411 28.125 32.6279C28.125 32.7166 28.125 32.8052 28.1375 32.8812H28.125C27.641 32.8816 27.1618 32.9787 26.7149 33.1672C26.2679 33.3556 25.862 33.6316 25.5203 33.9794C25.1786 34.3272 24.9079 34.7399 24.7237 35.1939C24.5395 35.648 24.4453 36.1344 24.4466 36.6254L29.9655 39.8579L42.2543 47.0574L54.5432 39.8604L60.0621 36.6254C60.0607 35.6357 59.6724 34.687 58.9823 33.9874C58.2922 33.2879 57.3568 32.8946 56.3812 32.8939Z" fill="white"/>
<path d="M54.4533 41.2233L52.3856 62.0797L57.2752 58.6015C57.3225 58.5681 57.3626 58.5253 57.3931 58.4756C57.4236 58.426 57.4438 58.3706 57.4525 58.3127L60.5365 38.0035C60.5416 37.9699 60.5372 37.9356 60.5238 37.9045C60.5104 37.8734 60.4886 37.8467 60.4609 37.8276C60.4332 37.8086 60.4007 37.7978 60.3673 37.7967C60.3338 37.7955 60.3007 37.804 60.2718 37.8211L54.4533 41.2233Z" fill="white"/>
<path d="M75.4899 50.5862C75.0498 52.821 73.8202 54.8157 72.0323 56.1956C70.2444 57.5755 68.0213 58.2455 65.7807 58.0797C65.5934 58.0645 65.4136 58.0467 65.2313 58.0189L65.0166 59.4248C64.9846 59.6357 64.8714 59.825 64.7019 59.9514C64.5324 60.0777 64.3205 60.1307 64.1126 60.0987L60.7014 59.5641C60.6065 59.5493 60.5155 59.5157 60.4335 59.4651C60.3515 59.4145 60.2802 59.348 60.2235 59.2694C60.1669 59.1908 60.1262 59.1016 60.1036 59.007C60.081 58.9124 60.0771 58.8142 60.092 58.718L60.5166 55.9314L62.9339 40.0833L63.4009 37.0257C63.4199 36.9018 63.4866 36.7907 63.5863 36.7166C63.686 36.6425 63.8106 36.6115 63.9328 36.6305L65.7807 36.9142C64.3892 31.6639 61.3299 27.0255 57.0767 23.7176C52.8235 20.4096 47.6137 18.6166 42.2543 18.6164V15.5765C48.9183 15.5766 55.3529 18.0454 60.349 22.5189C65.3452 26.9924 68.559 33.1627 69.3867 39.8705C71.5137 40.5995 73.3063 42.0893 74.4295 44.0613C75.5527 46.0334 75.9297 48.3528 75.4899 50.5862Z" fill="white"/>
</g>
<defs>
<linearGradient id="paint0_linear_348_471" x1="78.8584" y1="79.1041" x2="7.36995" y2="6.63295" gradientUnits="userSpaceOnUse">
<stop offset="0.103229"/>
<stop offset="0.75924" stop-color="#EBFF00" stop-opacity="0"/>
<stop offset="1" stop-color="white" stop-opacity="0.630208"/>
</linearGradient>
<clipPath id="clip0_348_471">
<rect width="66.8208" height="59.9422" fill="white" transform="translate(8.84393 12.2832)"/>
</clipPath>
</defs>
</svg>
