<svg width="163" height="107" viewBox="0 0 163 107" fill="none" xmlns="http://www.w3.org/2000/svg">
<g clip-path="url(#clip0_348_515)">
<path d="M66.7601 33.8049L69.1709 58.1608L63.4633 54.099C63.4082 54.0597 63.3616 54.0097 63.326 53.9517C63.2904 53.8938 63.2667 53.8292 63.2563 53.7618L59.6737 30.0448C59.67 30.008 59.6758 29.9709 59.6907 29.9371C59.7056 29.9034 59.7291 29.8742 59.7587 29.8526C59.7882 29.831 59.8229 29.8177 59.8592 29.814C59.8955 29.8104 59.9321 29.8165 59.9652 29.8318L66.7601 33.8049Z" fill="white"/>
<path d="M80.3937 41.7952V66.1511L74.517 61.971V61.9651L73.249 37.6091L80.3937 41.7952Z" fill="white"/>
<path d="M81.6063 41.7952L88.7481 37.6091L87.483 61.9651L81.6063 66.1511V41.7952Z" fill="white"/>
<path d="M80.9796 3.84595V7.39594C74.7283 7.40173 68.6531 9.49815 63.694 13.3608C58.735 17.2235 55.1685 22.6371 53.5464 28.764L55.7006 28.4267C55.7713 28.4149 55.8436 28.4176 55.9133 28.4345C55.983 28.4515 56.0486 28.4823 56.1064 28.5253C56.1642 28.5682 56.213 28.6225 56.2499 28.6848C56.2869 28.7471 56.3112 28.8162 56.3215 28.8882L56.8666 32.4589L59.6883 50.9662L60.1868 54.2204C60.2203 54.4474 60.1641 54.6787 60.0303 54.8637C59.8965 55.0488 59.696 55.1727 59.4726 55.2085L55.4965 55.8327C55.2531 55.8701 55.005 55.8085 54.8063 55.661C54.6075 55.5136 54.4742 55.2925 54.4355 55.0458L54.1877 53.4039C53.9749 53.4364 53.7621 53.4571 53.5464 53.4749C50.9464 53.6377 48.3762 52.84 46.3107 51.2293C44.2451 49.6185 42.8237 47.3035 42.3092 44.712C41.7946 42.1205 42.2216 39.4275 43.5113 37.1306C44.801 34.8337 46.8662 33.0881 49.3254 32.2163C50.2924 24.3866 54.0418 17.1841 59.8699 11.9606C65.6979 6.73707 73.2041 3.8517 80.9796 3.84595Z" fill="white"/>
<path d="M97.4902 24.0689H97.3853C97.1793 23.094 96.6504 22.2201 95.8865 21.593C95.1227 20.9659 94.1702 20.6233 93.1877 20.6225H93.1002C92.8981 19.643 92.3699 18.764 91.6044 18.1332C90.8389 17.5023 89.8829 17.1581 88.8968 17.1583H88.7802C88.5589 16.0022 88.0208 14.933 87.2277 14.0733C86.4346 13.2137 85.4186 12.5985 84.2964 12.2986C83.1743 11.9986 81.9916 12.0259 80.884 12.3774C79.7765 12.7289 78.7892 13.3904 78.0354 14.2858C77.1855 13.8454 76.2384 13.6339 75.2849 13.6717C74.3313 13.7095 73.4033 13.9953 72.5899 14.5016C71.7764 15.0079 71.1048 15.7178 70.6393 16.5632C70.1738 17.4087 69.9302 18.3613 69.9317 19.3297C69.9317 19.4125 69.9317 19.4895 69.9317 19.5693C69.5595 19.4648 69.1752 19.411 68.789 19.4096C67.6535 19.4119 66.5652 19.8709 65.7626 20.6861C64.9599 21.5012 64.5084 22.606 64.5068 23.7583C64.5068 23.8619 64.5068 23.9654 64.5214 24.0542H64.5068C63.9418 24.0545 63.3825 24.168 62.8607 24.3881C62.339 24.6081 61.8652 24.9304 61.4663 25.3366C61.0675 25.7427 60.7515 26.2247 60.5365 26.7549C60.3214 27.2851 60.2115 27.8532 60.213 28.4266L66.6552 32.2014L81 40.609L95.3448 32.2044L101.787 28.4266C101.785 27.2708 101.332 26.1629 100.527 25.346C99.7211 24.529 98.6291 24.0697 97.4902 24.0689Z" fill="white"/>
<path d="M95.2399 33.7959L92.8262 58.1518L98.5338 54.09C98.5891 54.051 98.6359 54.001 98.6715 53.943C98.7071 53.885 98.7307 53.8203 98.7408 53.7528L102.341 30.0359C102.347 29.9967 102.342 29.9566 102.326 29.9202C102.31 29.8839 102.285 29.8528 102.253 29.8305C102.22 29.8082 102.182 29.7957 102.143 29.7943C102.104 29.793 102.066 29.8029 102.032 29.8229L95.2399 33.7959Z" fill="white"/>
<path d="M119.796 44.7301C119.282 47.3398 117.847 49.6692 115.76 51.2806C113.673 52.892 111.078 53.6744 108.462 53.4808C108.244 53.4631 108.034 53.4423 107.821 53.4098L107.57 55.0517C107.533 55.2979 107.401 55.5191 107.203 55.6666C107.005 55.8141 106.758 55.876 106.515 55.8386L102.533 55.2144C102.423 55.1971 102.316 55.1578 102.221 55.0987C102.125 55.0396 102.042 54.962 101.975 54.8702C101.909 54.7784 101.862 54.6743 101.835 54.5638C101.809 54.4533 101.805 54.3386 101.822 54.2263L102.318 50.9721L105.139 32.4648L105.684 28.8941C105.707 28.7495 105.784 28.6197 105.901 28.5332C106.017 28.4467 106.163 28.4105 106.305 28.4326L108.462 28.764C106.838 22.6327 103.267 17.2161 98.3022 13.353C93.3374 9.49003 87.256 7.39623 81 7.39594V3.84595C88.7789 3.8461 96.2899 6.72909 102.122 11.9532C107.954 17.1773 111.706 24.383 112.672 32.2163C115.155 33.0677 117.247 34.8074 118.558 37.1103C119.869 39.4132 120.309 42.1219 119.796 44.7301Z" fill="white"/>
</g>
<path d="M19.1712 88.7256C19.174 88.0082 19.0657 87.294 18.8496 86.6034C18.469 85.4071 17.7494 84.3202 16.7612 83.4491C15.9926 82.7557 15.0761 82.2091 14.0667 81.8421C13.0573 81.4751 11.9758 81.2953 10.8871 81.3135C9.63836 81.3145 8.40334 81.5478 7.25972 81.9987C6.1103 82.4384 5.08295 83.1008 4.25092 83.9384C3.53944 84.6548 3.0033 85.4976 2.67724 86.4121C2.36958 87.3778 2.22609 88.3798 2.25165 89.3841V100.658H12.0055V95.6128C13.0807 95.5525 14.1343 95.3141 15.1133 94.9098C15.7849 94.6296 16.3976 94.2473 16.9245 93.7797C17.0823 93.6392 17.231 93.4907 17.3699 93.3348C17.3699 93.2548 17.3699 93.1747 17.3699 93.0946C17.3571 92.3756 17.5086 91.6618 17.815 90.9975C18.1215 90.3333 18.5763 89.7326 19.1514 89.2328C19.1663 89.0593 19.1712 88.8947 19.1712 88.7256ZM15.2123 92.1959C15.1281 92.2715 15.0391 92.3427 14.945 92.4139C14.0394 93.0812 12.7478 93.4194 11.0653 93.4194H10.3329V89.5976C11.3028 89.5976 11.7878 89.264 11.7878 88.5966C11.7878 87.9871 11.4166 87.6801 10.6743 87.6801C9.93202 87.6801 9.55097 88.0983 9.55097 88.9347V98.4335H4.72599V89.3841C4.70314 88.6063 4.80819 87.8297 5.03776 87.0795C5.26089 86.4588 5.62677 85.8874 6.11163 85.4022C6.70185 84.8141 7.42818 84.3494 8.23956 84.0408C9.07369 83.7098 9.97535 83.5386 10.8871 83.538C11.653 83.5216 12.4147 83.6453 13.1258 83.9015C13.837 84.1577 14.4829 84.5411 15.0242 85.0285C16.0363 85.9086 16.6334 87.1049 16.6919 88.3697C16.6919 88.4854 16.6919 88.6055 16.6919 88.7256C16.7199 89.3656 16.6013 90.0039 16.3433 90.6008C16.0854 91.1978 15.6937 91.7408 15.1925 92.1959H15.2123Z" fill="white"/>
<path d="M24.788 91.9867C24.6302 91.8405 24.4414 91.7242 24.2327 91.6448C24.024 91.5654 23.7997 91.5245 23.5731 91.5245C23.3465 91.5245 23.1222 91.5654 22.9135 91.6448C22.7048 91.7242 22.516 91.8405 22.3582 91.9867C22.0373 92.2923 21.8586 92.6966 21.8586 93.1168C21.8586 93.537 22.0373 93.9413 22.3582 94.2468C22.5097 94.3979 22.6954 94.5181 22.9028 94.5994C23.1102 94.6808 23.3345 94.7213 23.5607 94.7184C23.7883 94.7209 24.014 94.6802 24.2229 94.5989C24.4318 94.5177 24.6193 94.3977 24.7731 94.2468C25.0929 93.9408 25.2709 93.5367 25.2709 93.1168C25.2709 92.6969 25.0929 92.2928 24.7731 91.9867H24.788ZM24.788 91.9867C24.6302 91.8405 24.4414 91.7242 24.2327 91.6448C24.024 91.5654 23.7997 91.5245 23.5731 91.5245C23.3465 91.5245 23.1222 91.5654 22.9135 91.6448C22.7048 91.7242 22.516 91.8405 22.3582 91.9867C22.0373 92.2923 21.8586 92.6966 21.8586 93.1168C21.8586 93.537 22.0373 93.9413 22.3582 94.2468C22.5097 94.3979 22.6954 94.5181 22.9028 94.5994C23.1102 94.6808 23.3345 94.7213 23.5607 94.7184C23.7883 94.7209 24.014 94.6802 24.2229 94.5989C24.4318 94.5177 24.6193 94.3977 24.7731 94.2468C25.0929 93.9408 25.2709 93.5367 25.2709 93.1168C25.2709 92.6969 25.0929 92.2928 24.7731 91.9867H24.788ZM30.4245 88.3429C30.2121 88.104 29.9858 87.8753 29.7466 87.6578C28.9627 86.9261 28.0204 86.3464 26.9778 85.9547C25.9352 85.5629 24.8144 85.3673 23.6844 85.3799C22.5357 85.3637 21.3947 85.5519 20.3271 85.9337C19.2595 86.3155 18.2865 86.8833 17.4639 87.6044C17.1854 87.8476 16.9258 88.1077 16.687 88.383C16.687 88.4987 16.687 88.6188 16.687 88.7389C16.7169 89.3779 16.6006 90.0156 16.3452 90.6125C16.0899 91.2095 15.7009 91.7529 15.2024 92.2092C15.1182 92.2848 15.0292 92.356 14.9351 92.4272C14.9104 92.6541 14.9005 92.8721 14.9005 93.1212C14.8998 93.7201 14.9745 94.3171 15.1232 94.9008C15.4873 96.3082 16.2968 97.5908 17.454 98.5935C18.254 99.3237 19.21 99.9008 20.2646 100.29C21.3192 100.679 22.4505 100.872 23.5904 100.858C24.7225 100.864 25.8447 100.668 26.8921 100.282C27.9395 99.8956 28.8912 99.3262 29.6921 98.6069C30.2339 98.1324 30.7032 97.5953 31.0877 97.0097V93.5038C31.0692 92.4891 31.3114 91.4843 31.7953 90.5675C31.4855 89.76 31.0216 89.0073 30.4245 88.3429ZM28.6282 96.3512C28.4265 96.5956 28.2048 96.8261 27.965 97.0408C26.7948 98.0771 25.2181 98.658 23.5756 98.658C21.933 98.658 20.3563 98.0771 19.1861 97.0408C18.068 96.0774 17.4157 94.7576 17.3699 93.3659C17.3699 93.2858 17.3699 93.2057 17.3699 93.1257C17.3523 92.4014 17.5015 91.6817 17.8081 91.0118C18.1147 90.3419 18.572 89.7362 19.1514 89.2327L19.1861 89.2016C19.7792 88.679 20.4829 88.2688 21.2556 87.9952C22.0283 87.7216 22.8542 87.5902 23.6844 87.6088C24.4876 87.5995 25.2843 87.7389 26.025 88.0182C26.7656 88.2976 27.4345 88.711 27.9898 89.2327C28.4368 89.6243 28.8155 90.0743 29.1131 90.5675C29.5663 91.3485 29.7976 92.2181 29.7862 93.099C29.8129 94.2686 29.4055 95.413 28.6282 96.3512ZM23.5706 91.524C23.3453 91.5189 23.1213 91.5558 22.9126 91.6324C22.704 91.709 22.5152 91.8236 22.3582 91.9689C22.0373 92.2745 21.8586 92.6788 21.8586 93.099C21.8586 93.5192 22.0373 93.9235 22.3582 94.229C22.5097 94.3801 22.6954 94.5003 22.9028 94.5817C23.1102 94.663 23.3345 94.7035 23.5607 94.7006C23.7883 94.7031 24.014 94.6624 24.2229 94.5811C24.4318 94.4999 24.6193 94.3799 24.7731 94.229C25.0929 93.923 25.2709 93.5189 25.2709 93.099C25.2709 92.6791 25.0929 92.275 24.7731 91.9689C24.6173 91.8247 24.4301 91.7107 24.2233 91.6342C24.0164 91.5577 23.7943 91.5202 23.5706 91.524ZM24.788 91.9689C24.6302 91.8227 24.4414 91.7064 24.2327 91.627C24.024 91.5476 23.7997 91.5067 23.5731 91.5067C23.3465 91.5067 23.1222 91.5476 22.9135 91.627C22.7048 91.7064 22.516 91.8227 22.3582 91.9689C22.0373 92.2745 21.8586 92.6788 21.8586 93.099C21.8586 93.5192 22.0373 93.9235 22.3582 94.229C22.5097 94.3801 22.6954 94.5003 22.9028 94.5817C23.1102 94.663 23.3345 94.7035 23.5607 94.7006C23.7883 94.7031 24.014 94.6624 24.2229 94.5811C24.4318 94.4999 24.6193 94.3799 24.7731 94.229C25.0929 93.923 25.2709 93.5189 25.2709 93.099C25.2709 92.6791 25.0929 92.275 24.7731 91.9689H24.788ZM24.788 91.9689C24.6302 91.8227 24.4414 91.7064 24.2327 91.627C24.024 91.5476 23.7997 91.5067 23.5731 91.5067C23.3465 91.5067 23.1222 91.5476 22.9135 91.627C22.7048 91.7064 22.516 91.8227 22.3582 91.9689C22.0373 92.2745 21.8586 92.6788 21.8586 93.099C21.8586 93.5192 22.0373 93.9235 22.3582 94.229C22.5097 94.3801 22.6954 94.5003 22.9028 94.5817C23.1102 94.663 23.3345 94.7035 23.5607 94.7006C23.7883 94.7031 24.014 94.6624 24.2229 94.5811C24.4318 94.4999 24.6193 94.3799 24.7731 94.229C25.0929 93.923 25.2709 93.5189 25.2709 93.099C25.2709 92.6791 25.0929 92.275 24.7731 91.9689H24.788Z" fill="white"/>
<path d="M45.3449 90.2516C44.8932 89.2594 44.2195 88.3614 43.3654 87.6133C42.5527 86.8888 41.5863 86.3186 40.5237 85.9364C39.461 85.5543 38.3238 85.3681 37.1795 85.3888C35.9309 85.3949 34.6985 85.6438 33.567 86.1184C32.4317 86.58 31.4256 87.264 30.6225 88.1205L30.4246 88.3474C29.8503 89.0167 29.4069 89.7689 29.1132 90.5719C29.5664 91.3529 29.7976 92.2226 29.7862 93.1034C29.8119 94.2716 29.4045 95.4142 28.6282 96.3512V104.586H38.006V100.863C40.0638 100.736 41.9938 99.9198 43.4149 98.5758C43.6079 98.3978 43.7959 98.2154 43.9642 98.0285C44.5475 97.4067 45.0139 96.7034 45.3449 95.9464C44.7663 95.0644 44.4701 94.056 44.4887 93.0322C44.4756 92.0512 44.7725 91.0869 45.3449 90.2516ZM41.6531 97.0141C41.1076 97.5375 40.4473 97.9536 39.714 98.2362C38.9807 98.5188 38.1901 98.6616 37.3923 98.6558C37.1251 98.6558 36.7292 98.6291 36.2096 98.5802V94.1934C36.5101 94.4354 36.8952 94.5754 37.2983 94.5894C37.5183 94.5934 37.7368 94.5559 37.9397 94.4792C38.1425 94.4026 38.3253 94.2886 38.4761 94.1445C38.6346 94.0021 38.76 93.8328 38.845 93.6465C38.9299 93.4601 38.9728 93.2603 38.971 93.0589C38.9765 92.8597 38.9353 92.6616 38.85 92.4777C38.7647 92.2937 38.6373 92.1279 38.4761 91.9912C38.3169 91.8472 38.1271 91.7335 37.9179 91.6571C37.7087 91.5806 37.4845 91.5429 37.2587 91.5463C36.1205 91.5463 35.5514 92.2522 35.5514 93.664V102.362H31.1025V93.5038C31.0795 92.4902 31.3165 91.4854 31.7954 90.5675C31.9907 90.2025 32.235 89.8603 32.5228 89.5486C33.0891 88.9464 33.7997 88.4673 34.6013 88.1472C35.7581 87.6653 37.0502 87.5099 38.3073 87.7013C39.5643 87.8927 40.7274 88.422 41.6432 89.2194C42.0068 89.5351 42.3243 89.8909 42.5884 90.2783C43.1717 91.1392 43.472 92.131 43.4545 93.139C43.4686 94.1334 43.1701 95.1111 42.5934 95.9597C42.3257 96.3423 42.0103 96.696 41.6531 97.0141Z" fill="white"/>
<path d="M57.7067 93.1079C57.687 92.074 58.0053 91.0576 58.6222 90.1849C58.2933 89.436 57.8284 88.7414 57.2465 88.1294C56.9063 87.7703 56.5321 87.4383 56.1281 87.1373C54.4767 85.9188 52.3825 85.2925 50.2484 85.3787C48.1143 85.4649 46.091 86.2577 44.5679 87.6044C44.3555 87.7893 44.1555 87.9854 43.9691 88.1917C43.3865 88.809 42.9201 89.5078 42.5884 90.2605C43.1717 91.1215 43.472 92.1133 43.4545 93.1213C43.4686 94.1156 43.1701 95.0934 42.5934 95.942C42.9192 96.7021 43.3823 97.4086 43.9642 98.033C44.1374 98.2243 44.3254 98.4112 44.5234 98.5936C45.3211 99.3329 46.279 99.9173 47.3378 100.311C48.3967 100.704 49.534 100.898 50.6796 100.88C51.7675 100.897 52.8484 100.721 53.86 100.36C54.8716 99.9997 55.7938 99.4628 56.5734 98.7805C57.4779 98.0108 58.1811 97.0702 58.6321 96.0265C58.0116 95.1564 57.6897 94.1414 57.7067 93.1079ZM54.8612 97.1743C54.3086 97.6586 53.6542 98.039 52.9362 98.2934C52.2182 98.5478 51.4511 98.671 50.6796 98.6559C49.861 98.6718 49.0476 98.5353 48.2905 98.2551C47.5335 97.9749 46.849 97.5569 46.2802 97.0275C45.9195 96.7052 45.6053 96.3435 45.3449 95.9509C44.7663 95.0689 44.47 94.0605 44.4887 93.0367C44.4747 92.0542 44.7716 91.0883 45.3449 90.2516C45.6157 89.866 45.9363 89.5106 46.3 89.1927C47.0868 88.4818 48.0747 87.9775 49.1569 87.7342C50.2392 87.4909 51.3748 87.518 52.4413 87.8124C53.5077 88.1068 54.4645 88.6574 55.2084 89.4048C55.9523 90.1522 56.4551 91.068 56.6625 92.0535L55.3016 92.098L52.1741 92.2048C52.0074 91.9908 51.7849 91.8169 51.526 91.6982C51.2672 91.5795 50.98 91.5197 50.6894 91.524C50.4594 91.5163 50.23 91.5519 50.0161 91.6285C49.8022 91.7052 49.6085 91.8211 49.4473 91.969C49.2841 92.1175 49.1562 92.2942 49.0711 92.4884C48.986 92.6826 48.9457 92.8904 48.9525 93.099C48.9427 93.3127 48.9815 93.5259 49.0666 93.7255C49.1517 93.9252 49.2813 94.1071 49.4473 94.2602C49.6138 94.4131 49.8135 94.5334 50.0341 94.6138C50.2546 94.6942 50.4912 94.7328 50.729 94.7274C51.4812 94.7274 52.0157 94.3358 52.3275 93.5439L55.1977 93.446L56.7219 93.3971C56.6669 94.34 56.356 95.2565 55.8163 96.0665C55.5518 96.4709 55.2308 96.8432 54.8612 97.1743Z" fill="white"/>
<path d="M78.5704 85.5135C77.9961 85.4277 77.4155 85.3801 76.8334 85.3711C75.7933 85.3419 74.7582 85.5125 73.7973 85.8715C72.8364 86.2306 71.9717 86.7698 71.2612 87.4533C71.0245 87.6827 70.8078 87.9281 70.6129 88.1874C70.0578 88.9216 69.6647 89.7447 69.4549 90.6121C69.8941 91.3827 70.1183 92.2378 70.1081 93.1036C70.1264 94.1251 69.8153 95.1295 69.2124 95.9955V100.658H78.5902V94.7408L79.1989 95.0478V92.5119C79.1711 91.2471 79.6972 90.0232 80.6637 89.1039V85.8116L78.5704 85.5135ZM78.1893 91.9691C77.9356 91.8283 77.6459 91.7487 77.348 91.7377C77.1493 91.7324 76.9527 91.7755 76.7789 91.8623C76.3534 92.0788 76.1406 92.5905 76.1406 93.3972V98.4336H71.7065V92.6498C71.6916 91.9105 71.8257 91.1749 72.1024 90.4787C72.3206 89.9271 72.6569 89.4192 73.0922 88.9838C73.5667 88.5277 74.1456 88.1694 74.7888 87.9337C75.4321 87.6979 76.1245 87.5902 76.8185 87.6179C77.2714 87.627 77.7229 87.6656 78.1695 87.7336L78.1893 91.9691Z" fill="white"/>
<path d="M90.4522 87.8226C89.2699 86.5886 87.6489 85.7605 85.8646 85.4791C84.0803 85.1977 82.2426 85.4802 80.6637 86.2787C79.6856 86.8016 78.8423 87.5053 78.1893 88.3431V91.9913C77.9356 91.8506 77.6459 91.7709 77.3481 91.76C77.1493 91.7547 76.9527 91.7977 76.779 91.8846C76.779 92.0981 76.7493 92.3295 76.7493 92.5341V100.658H92.2238V92.8322C92.2189 90.7723 91.625 89.0861 90.4522 87.8226ZM89.7445 98.4336H85.3204V92.4407C85.3204 91.8267 85.0383 91.5242 84.4791 91.5242C83.9199 91.5242 83.6477 91.8267 83.6477 92.4407V98.4336H79.2187V92.5119C79.1856 91.2496 79.7044 90.026 80.6637 89.1039L80.7528 89.0149C81.2683 88.5462 81.886 88.1783 82.5672 87.9344C83.2483 87.6904 83.9782 87.5757 84.711 87.5975C85.4439 87.6192 86.1638 87.7769 86.8256 88.0606C87.4874 88.3443 88.0768 88.748 88.5568 89.2463C89.3552 90.1034 89.7528 91.2988 89.7495 92.8322L89.7445 98.4336Z" fill="white"/>
<path d="M106.585 81.7362C105.699 81.45 104.765 81.2996 103.824 81.2913C102.768 81.2875 101.723 81.4768 100.751 81.8477C99.7795 82.2187 98.9021 82.7636 98.1722 83.4491C97.4253 84.1178 96.8338 84.9133 96.4319 85.7894C96.0301 86.6654 95.826 87.6046 95.8314 88.5522C95.8318 89.3039 95.945 90.0522 96.1679 90.7767L94.8961 90.0471V99.7282L96.3214 100.329C97.3659 100.778 98.5085 101.014 99.6667 101.018C100.969 101.031 102.256 100.764 103.422 100.24C104.587 99.7163 105.596 98.9506 106.367 98.0064C106.937 97.3188 107.36 96.5418 107.614 95.7151C107.128 94.9163 106.88 94.0184 106.892 93.108C106.883 92.3954 107.029 91.6881 107.322 91.0258C107.288 90.9413 107.248 90.8523 107.208 90.7678L107.416 90.8301C107.633 90.4023 107.912 90.0027 108.248 89.6422V82.2523L106.585 81.7362ZM103.759 97.3079C103.222 97.787 102.582 98.1638 101.879 98.4161C101.176 98.6683 100.424 98.7907 99.6667 98.7761C98.871 98.7714 98.0866 98.6073 97.3705 98.2956V94.1268C97.7288 94.3588 98.1522 94.496 98.5928 94.5228C98.9733 94.5328 99.3447 94.4173 99.637 94.198C99.771 94.0998 99.8785 93.9754 99.9514 93.8344C100.024 93.6934 100.061 93.5393 100.058 93.3838C99.9319 92.8846 99.7036 92.4108 99.3846 91.9868C98.699 90.9571 98.3269 89.7833 98.3058 88.5833C98.2955 87.9219 98.4345 87.2655 98.7144 86.6538C98.9942 86.042 99.4091 85.4876 99.9339 85.0241C100.433 84.5487 101.037 84.1713 101.706 83.9156C102.375 83.6599 103.096 83.5313 103.824 83.5381C104.489 83.5398 105.149 83.6405 105.778 83.8362V87.9782C105.52 87.8883 105.248 87.8343 104.972 87.8181C104.796 87.8165 104.622 87.8482 104.461 87.911C104.3 87.9739 104.155 88.0665 104.036 88.1829C103.908 88.2997 103.807 88.4388 103.739 88.5917C103.672 88.7447 103.64 88.9083 103.645 89.0727C103.684 89.4677 103.831 89.8481 104.071 90.1805L104.437 90.7544C104.526 90.8924 104.61 91.0347 104.685 91.1727C105.158 91.969 105.414 92.8549 105.432 93.7576C105.437 94.4757 105.268 95.1862 104.937 95.8397C104.653 96.3979 104.253 96.9023 103.759 97.3257V97.3079Z" fill="white"/>
<path d="M114.315 91.9868C114.157 91.8407 113.969 91.7245 113.761 91.6452C113.552 91.5658 113.329 91.5249 113.102 91.5249C112.876 91.5249 112.652 91.5658 112.444 91.6452C112.236 91.7245 112.047 91.8407 111.89 91.9868C111.568 92.2918 111.388 92.6963 111.388 93.1169C111.388 93.5374 111.568 93.9419 111.89 94.2469C112.041 94.398 112.227 94.5182 112.434 94.5995C112.642 94.6809 112.866 94.7214 113.092 94.7185C113.322 94.7223 113.549 94.6821 113.76 94.6008C113.971 94.5195 114.16 94.3989 114.315 94.2469C114.635 93.9409 114.813 93.5368 114.813 93.1169C114.813 92.697 114.635 92.2929 114.315 91.9868ZM113.102 88.8725V89.7C114.108 89.7 115.072 90.059 115.783 90.6982C116.494 91.3373 116.893 92.2041 116.893 93.108H117.809C117.806 91.9881 117.31 90.9149 116.428 90.1235C115.547 89.3321 114.353 88.887 113.107 88.8858L113.102 88.8725ZM113.102 88.8725V89.7C114.108 89.7 115.072 90.059 115.783 90.6982C116.494 91.3373 116.893 92.2041 116.893 93.108H117.809C117.806 91.9881 117.31 90.9149 116.428 90.1235C115.547 89.3321 114.353 88.887 113.107 88.8858L113.102 88.8725ZM114.315 91.9868C114.157 91.8407 113.969 91.7245 113.761 91.6452C113.552 91.5658 113.329 91.5249 113.102 91.5249C112.876 91.5249 112.652 91.5658 112.444 91.6452C112.236 91.7245 112.047 91.8407 111.89 91.9868C111.568 92.2918 111.388 92.6963 111.388 93.1169C111.388 93.5374 111.568 93.9419 111.89 94.2469C112.041 94.398 112.227 94.5182 112.434 94.5995C112.642 94.6809 112.866 94.7214 113.092 94.7185C113.322 94.7223 113.549 94.6821 113.76 94.6008C113.971 94.5195 114.16 94.3989 114.315 94.2469C114.635 93.9409 114.813 93.5368 114.813 93.1169C114.813 92.697 114.635 92.2929 114.315 91.9868ZM114.315 91.9868C114.157 91.8407 113.969 91.7245 113.761 91.6452C113.552 91.5658 113.329 91.5249 113.102 91.5249C112.876 91.5249 112.652 91.5658 112.444 91.6452C112.236 91.7245 112.047 91.8407 111.89 91.9868C111.568 92.2918 111.388 92.6963 111.388 93.1169C111.388 93.5374 111.568 93.9419 111.89 94.2469C112.041 94.398 112.227 94.5182 112.434 94.5995C112.642 94.6809 112.866 94.7214 113.092 94.7185C113.322 94.7223 113.549 94.6821 113.76 94.6008C113.971 94.5195 114.16 94.3989 114.315 94.2469C114.635 93.9409 114.813 93.5368 114.813 93.1169C114.813 92.697 114.635 92.2929 114.315 91.9868ZM113.102 88.8725V89.7C114.108 89.7 115.072 90.059 115.783 90.6982C116.494 91.3373 116.893 92.2041 116.893 93.108H117.809C117.806 91.9881 117.31 90.9149 116.428 90.1235C115.547 89.3321 114.353 88.887 113.107 88.8858L113.102 88.8725ZM113.102 88.8725V89.7C114.108 89.7 115.072 90.059 115.783 90.6982C116.494 91.3373 116.893 92.2041 116.893 93.108H117.809C117.806 91.9881 117.31 90.9149 116.428 90.1235C115.547 89.3321 114.353 88.887 113.107 88.8858L113.102 88.8725ZM113.102 91.5108C112.878 91.5055 112.654 91.5423 112.447 91.6189C112.239 91.6955 112.051 91.8102 111.895 91.9557C111.573 92.2607 111.393 92.6652 111.393 93.0857C111.393 93.5062 111.573 93.9107 111.895 94.2158C112.046 94.3668 112.232 94.4871 112.439 94.5684C112.647 94.6497 112.871 94.6903 113.097 94.6874C113.323 94.6945 113.548 94.6589 113.758 94.5831C113.968 94.5072 114.157 94.3927 114.315 94.2469C114.635 93.9409 114.813 93.5368 114.813 93.1169C114.813 92.697 114.635 92.2929 114.315 91.9868C114.159 91.8382 113.971 91.7203 113.763 91.6407C113.554 91.561 113.329 91.5213 113.102 91.5241V91.5108ZM120.897 93.5529V89.6421C120.472 88.9049 119.921 88.2322 119.263 87.649C118.994 87.4052 118.708 87.1764 118.407 86.9638C116.929 85.9106 115.092 85.3481 113.206 85.3711C111.448 85.3465 109.723 85.801 108.258 86.6746C107.809 86.9456 107.388 87.2523 107.001 87.5911C105.875 88.56 105.075 89.7931 104.69 91.1504C105.163 91.9468 105.419 92.8326 105.437 93.7353C105.442 94.4534 105.273 95.1639 104.942 95.8174C105.271 96.6133 105.749 97.3523 106.357 98.0019C107.128 98.843 108.085 99.5307 109.167 100.021C110.249 100.512 111.433 100.794 112.643 100.851C113.854 100.907 115.064 100.736 116.197 100.349C117.33 99.9623 118.361 99.3674 119.224 98.6025C119.417 98.429 119.6 98.2511 119.768 98.0731C120.411 97.4016 120.914 96.6315 121.253 95.7996C120.992 95.0792 120.871 94.3236 120.897 93.5662V93.5529ZM117.497 97.0142C116.327 98.0505 114.75 98.6314 113.107 98.6314C111.465 98.6314 109.888 98.0505 108.718 97.0142C108.282 96.6283 107.91 96.1877 107.614 95.7062C107.13 94.91 106.881 94.0154 106.892 93.108C106.883 92.3953 107.029 91.688 107.322 91.0258C107.348 90.9587 107.38 90.8932 107.416 90.83C107.633 90.4022 107.912 90.0027 108.248 89.6421C108.394 89.4864 108.549 89.3379 108.713 89.1972C109.307 88.6741 110.011 88.2636 110.785 87.99C111.558 87.7163 112.385 87.5853 113.216 87.6045C114.02 87.5952 114.817 87.735 115.558 88.0152C116.298 88.2954 116.967 88.7099 117.522 89.2328C117.865 89.5384 118.167 89.8788 118.422 90.2472C119.022 91.1077 119.333 92.1057 119.318 93.1213C119.331 93.9984 119.103 94.8648 118.655 95.6439C118.348 96.1548 117.958 96.6212 117.497 97.0276V97.0142ZM113.107 88.8725V89.7C114.113 89.7 115.077 90.059 115.788 90.6982C116.499 91.3373 116.898 92.2041 116.898 93.108H117.813C117.811 91.9874 117.314 90.9135 116.432 90.1219C115.549 89.3304 114.354 88.8858 113.107 88.8858V88.8725ZM113.107 91.5108C112.883 91.5055 112.659 91.5423 112.451 91.6189C112.244 91.6955 112.056 91.8102 111.9 91.9557C111.578 92.2607 111.398 92.6652 111.398 93.0857C111.398 93.5062 111.578 93.9107 111.9 94.2158C112.051 94.3668 112.237 94.4871 112.444 94.5684C112.652 94.6497 112.876 94.6903 113.102 94.6874C113.327 94.6938 113.551 94.658 113.76 94.5822C113.969 94.5063 114.158 94.3921 114.315 94.2469C114.635 93.9409 114.813 93.5368 114.813 93.1169C114.813 92.697 114.635 92.2929 114.315 91.9868C114.159 91.8382 113.971 91.7203 113.763 91.6407C113.554 91.561 113.329 91.5213 113.102 91.5241L113.107 91.5108ZM114.325 91.9557C114.167 91.8095 113.979 91.6934 113.771 91.614C113.562 91.5347 113.338 91.4938 113.112 91.4938C112.886 91.4938 112.662 91.5347 112.454 91.614C112.246 91.6934 112.057 91.8095 111.9 91.9557C111.578 92.2607 111.398 92.6652 111.398 93.0857C111.398 93.5062 111.578 93.9107 111.9 94.2158C112.051 94.3668 112.237 94.4871 112.444 94.5684C112.652 94.6497 112.876 94.6903 113.102 94.6874C113.327 94.6938 113.551 94.658 113.76 94.5822C113.969 94.5063 114.158 94.3921 114.315 94.2469C114.635 93.9409 114.813 93.5368 114.813 93.1169C114.813 92.697 114.635 92.2929 114.315 91.9868L114.325 91.9557ZM113.112 88.8413V89.6688C114.118 89.6688 115.082 90.0279 115.793 90.667C116.504 91.3061 116.903 92.173 116.903 93.0768H117.818C117.807 91.9609 117.305 90.8943 116.423 90.1093C115.54 89.3243 114.349 88.8846 113.107 88.8858L113.112 88.8413ZM113.112 88.8413V89.6688C114.118 89.6688 115.082 90.0279 115.793 90.667C116.504 91.3061 116.903 92.173 116.903 93.0768H117.818C117.807 91.9609 117.305 90.8943 116.423 90.1093C115.54 89.3243 114.349 88.8846 113.107 88.8858L113.112 88.8413ZM114.325 91.9557C114.167 91.8095 113.979 91.6934 113.771 91.614C113.562 91.5347 113.338 91.4938 113.112 91.4938C112.886 91.4938 112.662 91.5347 112.454 91.614C112.246 91.6934 112.057 91.8095 111.9 91.9557C111.578 92.2607 111.398 92.6652 111.398 93.0857C111.398 93.5062 111.578 93.9107 111.9 94.2158C112.051 94.3668 112.237 94.4871 112.444 94.5684C112.652 94.6497 112.876 94.6903 113.102 94.6874C113.327 94.6938 113.551 94.658 113.76 94.5822C113.969 94.5063 114.158 94.3921 114.315 94.2469C114.635 93.9409 114.813 93.5368 114.813 93.1169C114.813 92.697 114.635 92.2929 114.315 91.9868L114.325 91.9557Z" fill="white"/>
<path d="M118.422 85.7449V90.234C119.022 91.0944 119.334 92.0925 119.318 93.1081C119.331 93.9851 119.103 94.8515 118.655 95.6307C118.85 96.5046 119.233 97.3358 119.783 98.0776C119.912 98.2467 120.05 98.4113 120.199 98.5715C120.87 99.2762 121.691 99.8539 122.613 100.271C123.534 100.688 124.539 100.936 125.569 101.001C126.598 101.066 127.632 100.947 128.61 100.65C129.587 100.352 130.49 99.8834 131.264 99.27C131.408 99.1598 131.545 99.0425 131.675 98.9185C132.733 97.952 133.451 96.7263 133.738 95.3949V92.5119C133.737 92.0852 133.79 91.6597 133.897 91.2439V85.7449H118.422ZM131.422 93.8866C131.424 94.3119 131.37 94.7358 131.264 95.1502C131.043 95.9907 130.569 96.7603 129.893 97.3747C129.415 97.8339 128.835 98.1975 128.191 98.4421C127.546 98.6866 126.851 98.8065 126.152 98.7939C125.38 98.8169 124.613 98.6799 123.909 98.3937C123.206 98.1075 122.585 97.6797 122.094 97.1433C121.732 96.7481 121.455 96.2954 121.278 95.8086C121.009 95.0923 120.881 94.3398 120.897 93.5841V87.9694H125.326V93.9623C125.326 94.5629 125.603 94.8521 126.167 94.8521C126.731 94.8521 126.993 94.5495 126.993 93.9623V87.9694H131.422V93.8866Z" fill="white"/>
<path d="M145.927 93.1302C145.918 92.3158 146.117 91.5103 146.511 90.7767C146.311 89.8892 145.92 89.0457 145.358 88.2941C145.236 88.1326 145.106 87.9767 144.967 87.827C144.296 87.1213 143.475 86.5427 142.553 86.1247C141.631 85.7067 140.626 85.4578 139.596 85.3924C138.565 85.327 137.531 85.4464 136.553 85.7437C135.574 86.0409 134.672 86.5102 133.897 87.124C133.753 87.2352 133.62 87.3509 133.486 87.4755C132.425 88.4455 131.707 89.6762 131.422 91.0125V93.8999C131.424 94.3252 131.37 94.7491 131.264 95.1635V100.658H146.739V95.9064C146.19 95.0656 145.909 94.1051 145.927 93.1302ZM144.264 98.4335H139.835V92.4406C139.835 91.8267 139.553 91.5241 138.994 91.5241C138.435 91.5241 138.167 91.8267 138.167 92.4406V98.4335H133.738V92.5118C133.737 92.0851 133.79 91.6596 133.897 91.2438C134.118 90.4042 134.59 89.6349 135.263 89.0193C135.777 88.5495 136.393 88.1803 137.074 87.9349C137.754 87.6894 138.484 87.5731 139.217 87.5931C139.949 87.6132 140.67 87.7692 141.332 88.0514C141.995 88.3336 142.585 88.7358 143.067 89.2329C143.443 89.6424 143.727 90.1139 143.903 90.621C144.158 91.3306 144.28 92.0733 144.264 92.8188V98.4335Z" fill="white"/>
<path d="M151.371 81.6694V85.3933C149.319 85.5207 147.396 86.3388 145.986 87.6846C145.772 87.8765 145.569 88.0784 145.378 88.2896C144.738 88.9851 144.245 89.7797 143.923 90.6343C144.177 91.3439 144.3 92.0866 144.284 92.8321V96.4848C144.709 97.2853 145.285 98.0137 145.986 98.6381C146.219 98.8429 146.463 99.0359 146.719 99.2165C147.993 100.1 149.512 100.653 151.111 100.817C152.71 100.98 154.328 100.746 155.79 100.142C156.935 99.6831 157.949 98.9953 158.754 98.1309C160.111 96.603 160.813 94.6881 160.733 92.7342V81.6694H151.371ZM158.274 92.7476C158.352 94.1786 157.855 95.5872 156.874 96.7161C156.309 97.321 155.598 97.8018 154.795 98.122C153.638 98.6004 152.348 98.754 151.092 98.5627C149.837 98.3714 148.675 97.8442 147.758 97.0498C147.375 96.7098 147.043 96.327 146.768 95.9108C146.218 95.0687 145.938 94.1065 145.957 93.1302C145.947 92.3157 146.147 91.5103 146.541 90.7766C146.837 90.2069 147.237 89.6853 147.723 89.2328C148.27 88.7097 148.931 88.2939 149.666 88.0114C150.4 87.7288 151.191 87.5858 151.989 87.5911C152.246 87.5911 152.642 87.6134 153.172 87.6579V92.0402C152.867 91.8059 152.484 91.671 152.083 91.6576C151.863 91.6538 151.645 91.6915 151.442 91.7681C151.239 91.8447 151.056 91.9586 150.905 92.1025C150.745 92.2526 150.621 92.4309 150.541 92.6261C150.461 92.8213 150.427 93.0293 150.44 93.237C150.436 93.4347 150.478 93.6311 150.563 93.8134C150.648 93.9958 150.775 94.1601 150.935 94.2958C151.095 94.44 151.286 94.5536 151.496 94.6301C151.706 94.7065 151.931 94.7442 152.157 94.7407C153.296 94.7407 153.86 94.0333 153.86 92.623V83.894H158.289L158.274 92.7476Z" fill="white"/>
<path d="M62.2298 89.8066V95.9285L67.3418 92.9788V92.8676L62.2298 89.8066ZM62.2298 89.8066V95.9285L67.3418 92.9788V92.8676L62.2298 89.8066ZM62.2298 89.8066V95.9285L67.3418 92.9788V92.8676L62.2298 89.8066ZM62.2298 89.8066V95.9285L67.3418 92.9788V92.8676L62.2298 89.8066ZM70.6426 88.1916C70.4743 88.0048 70.2912 87.8268 70.0982 87.6489C69.3151 86.9175 68.3736 86.338 67.3319 85.9463C66.2901 85.5545 65.1701 85.3587 64.041 85.3709C62.8908 85.3502 61.7476 85.5363 60.6786 85.9184C59.6095 86.3004 58.6361 86.8706 57.8156 87.5955C57.6189 87.7661 57.4323 87.9458 57.2564 88.1338C56.672 88.7442 56.2008 89.4352 55.8608 90.1804C56.2607 90.7546 56.536 91.3916 56.6724 92.0579L55.3115 92.1024C55.2658 92.4374 55.2427 92.7747 55.2422 93.1123C55.2422 93.228 55.2422 93.3392 55.2422 93.4504L56.7664 93.4015C56.7115 94.3444 56.4005 95.2609 55.8608 96.0709C56.2058 96.8177 56.6839 97.5089 57.2761 98.1175C57.4395 98.2865 57.6077 98.4556 57.771 98.6158C59.2702 99.9462 61.2535 100.745 63.3558 100.865C65.458 100.985 67.5378 100.419 69.2124 99.2698C69.5001 99.0679 69.7744 98.851 70.0339 98.6202C70.7037 98.0342 71.2621 97.3533 71.6867 96.6048V92.6451C71.6718 91.9059 71.8059 91.1703 72.0826 90.474C71.7569 89.6406 71.2656 88.8673 70.6327 88.1916H70.6426ZM69.2322 95.9997C68.9628 96.3731 68.6474 96.7178 68.2919 97.0275C67.1217 98.0637 65.545 98.6446 63.9024 98.6446C62.2599 98.6446 60.6832 98.0637 59.513 97.0275C59.1725 96.7263 58.8704 96.3921 58.6123 96.0309C57.9918 95.1608 57.6699 94.1457 57.6869 93.1123C57.6672 92.0784 57.9855 91.062 58.6024 90.1893C59.1843 89.3795 59.9865 88.7166 60.9331 88.2635C61.8796 87.8103 62.9391 87.5819 64.0113 87.5999C64.8144 87.5911 65.6109 87.7307 66.3515 88.01C67.0921 88.2894 67.761 88.7025 68.3167 89.2238C68.7765 89.6319 69.1608 90.1036 69.4549 90.6208C69.8941 91.3914 70.1183 92.2465 70.1081 93.1123C70.1314 94.1305 69.8272 95.1331 69.2322 95.9997ZM62.2298 95.9285L67.3418 92.9788V92.8676L62.2298 89.8066V95.9285ZM62.2298 89.8066V95.9285L67.3418 92.9788V92.8676L62.2298 89.8066ZM62.2298 89.8066V95.9285L67.3418 92.9788V92.8676L62.2298 89.8066Z" fill="white"/>
<path d="M113.107 88.8857V89.7133C114.113 89.7133 115.077 90.0723 115.788 90.7114C116.499 91.3506 116.898 92.2174 116.898 93.1212H117.813C117.814 92.5652 117.693 92.0146 117.457 91.5007C117.22 90.9869 116.874 90.5199 116.437 90.1266C116 89.7332 115.481 89.4211 114.909 89.2082C114.338 88.9953 113.726 88.8857 113.107 88.8857Z" fill="white"/>
<path d="M62.2298 89.8066L67.3418 92.8676V92.9788L62.2298 95.9285V89.8066Z" fill="white"/>
<path d="M67.3418 92.8676V92.9788L62.2298 95.9285V89.8066L67.3418 92.8676Z" fill="white"/>
<path d="M117.813 93.1212H116.898C116.898 92.2174 116.499 91.3506 115.788 90.7114C115.077 90.0723 114.113 89.7133 113.107 89.7133V88.8857C113.726 88.8857 114.338 88.9953 114.909 89.2082C115.481 89.4211 116 89.7332 116.437 90.1266C116.874 90.5199 117.22 90.9869 117.457 91.5007C117.693 92.0146 117.814 92.5652 117.813 93.1212Z" fill="white"/>
<defs>
<clipPath id="clip0_348_515">
<rect width="78" height="70" fill="white" transform="translate(42)"/>
</clipPath>
</defs>
</svg>
