<svg width="163" height="31" viewBox="0 0 163 31" fill="none" xmlns="http://www.w3.org/2000/svg">
<path d="M19.1712 10.8062C19.174 10.0092 19.0657 9.21555 18.8496 8.44825C18.469 7.11904 17.7494 5.91134 16.7612 4.94339C15.9926 4.17297 15.0761 3.56566 14.0667 3.1579C13.0573 2.75015 11.9758 2.55037 10.8871 2.57056C9.63836 2.57164 8.40334 2.83084 7.25972 3.33184C6.1103 3.82047 5.08295 4.5564 4.25092 5.48716C3.53944 6.28312 3.0033 7.21952 2.67724 8.23568C2.36958 9.30869 2.22609 10.422 2.25165 11.5379V24.0644H12.0055V18.4586C13.0807 18.3916 14.1343 18.1268 15.1133 17.6776C15.7849 17.3662 16.3976 16.9415 16.9245 16.4219C17.0823 16.2658 17.231 16.1007 17.3699 15.9276C17.3699 15.8386 17.3699 15.7496 17.3699 15.6607C17.3571 14.8617 17.5086 14.0687 17.815 13.3306C18.1215 12.5925 18.5763 11.9252 19.1514 11.3698C19.1663 11.177 19.1712 10.9941 19.1712 10.8062ZM15.2123 14.6621C15.1281 14.7461 15.0391 14.8252 14.945 14.9043C14.0394 15.6458 12.7478 16.0215 11.0653 16.0215H10.3329V11.7752C11.3028 11.7752 11.7878 11.4044 11.7878 10.6629C11.7878 9.98564 11.4166 9.64455 10.6743 9.64455C9.93202 9.64455 9.55097 10.1092 9.55097 11.0386V21.5927H4.72599V11.5379C4.70314 10.6736 4.80819 9.81076 5.03776 8.97719C5.26089 8.2876 5.62677 7.65263 6.11163 7.11353C6.70185 6.46013 7.42818 5.94381 8.23956 5.60086C9.07369 5.23308 9.97535 5.04284 10.8871 5.04225C11.653 5.02402 12.4147 5.16141 13.1258 5.44608C13.837 5.73075 14.4829 6.15677 15.0242 6.69829C16.0363 7.67624 16.6334 9.00539 16.6919 10.4108C16.6919 10.5393 16.6919 10.6728 16.6919 10.8062C16.7199 11.5173 16.6013 12.2265 16.3433 12.8898C16.0854 13.5531 15.6937 14.1564 15.1925 14.6621H15.2123Z" fill="white"/>
<path d="M24.788 14.4298C24.6302 14.2673 24.4414 14.1381 24.2327 14.0498C24.024 13.9616 23.7997 13.9162 23.5731 13.9162C23.3465 13.9162 23.1222 13.9616 22.9135 14.0498C22.7048 14.1381 22.516 14.2673 22.3582 14.4298C22.0373 14.7693 21.8586 15.2185 21.8586 15.6854C21.8586 16.1523 22.0373 16.6015 22.3582 16.941C22.5097 17.1088 22.6954 17.2424 22.9028 17.3328C23.1102 17.4232 23.3345 17.4682 23.5607 17.465C23.7883 17.4678 24.014 17.4225 24.2229 17.3322C24.4318 17.2419 24.6193 17.1086 24.7732 16.941C25.0929 16.6009 25.2709 16.1519 25.2709 15.6854C25.2709 15.2188 25.0929 14.7698 24.7732 14.4298H24.788ZM24.788 14.4298C24.6302 14.2673 24.4414 14.1381 24.2327 14.0498C24.024 13.9616 23.7997 13.9162 23.5731 13.9162C23.3465 13.9162 23.1222 13.9616 22.9135 14.0498C22.7048 14.1381 22.516 14.2673 22.3582 14.4298C22.0373 14.7693 21.8586 15.2185 21.8586 15.6854C21.8586 16.1523 22.0373 16.6015 22.3582 16.941C22.5097 17.1088 22.6954 17.2424 22.9028 17.3328C23.1102 17.4232 23.3345 17.4682 23.5607 17.465C23.7883 17.4678 24.014 17.4225 24.2229 17.3322C24.4318 17.2419 24.6193 17.1086 24.7732 16.941C25.0929 16.6009 25.2709 16.1519 25.2709 15.6854C25.2709 15.2188 25.0929 14.7698 24.7732 14.4298H24.788ZM30.4246 10.3811C30.2121 10.1157 29.9858 9.86155 29.7466 9.61983C28.9627 8.8068 28.0204 8.16278 26.9778 7.72748C25.9352 7.29218 24.8144 7.07483 23.6844 7.08882C22.5357 7.07086 21.3947 7.28 20.3271 7.70419C19.2596 8.12838 18.2865 8.75925 17.4639 9.56051C17.1854 9.83074 16.9258 10.1198 16.687 10.4256C16.687 10.5541 16.687 10.6876 16.687 10.8211C16.7169 11.5311 16.6006 12.2396 16.3453 12.9029C16.0899 13.5662 15.7009 14.17 15.2024 14.6769C15.1183 14.761 15.0292 14.8401 14.9352 14.9191C14.9104 15.1713 14.9005 15.4135 14.9005 15.6903C14.8998 16.3557 14.9745 17.0191 15.1232 17.6677C15.4873 19.2315 16.2968 20.6565 17.454 21.7707C18.254 22.582 19.2101 23.2232 20.2646 23.6556C21.3192 24.088 22.4505 24.3028 23.5904 24.2869C24.7225 24.2937 25.8447 24.0761 26.8921 23.6467C27.9395 23.2174 28.8912 22.5848 29.6922 21.7855C30.2339 21.2583 30.7032 20.6615 31.0877 20.0108V16.1154C31.0693 14.988 31.3114 13.8715 31.7954 12.8528C31.4855 11.9557 31.0216 11.1193 30.4246 10.3811ZM28.6282 19.2792C28.4265 19.5507 28.2049 19.8069 27.9651 20.0454C26.7948 21.1969 25.2182 21.8423 23.5756 21.8423C21.933 21.8423 20.3563 21.1969 19.1861 20.0454C18.068 18.975 17.4157 17.5086 17.3699 15.9622C17.3699 15.8732 17.3699 15.7842 17.3699 15.6953C17.3523 14.8905 17.5015 14.0909 17.8081 13.3465C18.1147 12.6022 18.572 11.9292 19.1514 11.3698L19.1861 11.3352C19.7792 10.7545 20.483 10.2987 21.2556 9.99473C22.0283 9.69074 22.8542 9.54477 23.6844 9.56546C24.4876 9.55509 25.2843 9.70992 26.025 10.0203C26.7657 10.3307 27.4345 10.7901 27.9898 11.3698C28.4368 11.8049 28.8155 12.3049 29.1132 12.8528C29.5664 13.7206 29.7976 14.6869 29.7862 15.6656C29.813 16.9652 29.4055 18.2367 28.6282 19.2792ZM23.5706 13.9156C23.3453 13.91 23.1213 13.951 22.9126 14.0361C22.704 14.1212 22.5152 14.2485 22.3582 14.41C22.0373 14.7495 21.8586 15.1987 21.8586 15.6656C21.8586 16.1325 22.0373 16.5817 22.3582 16.9212C22.5097 17.0891 22.6954 17.2227 22.9028 17.313C23.1102 17.4034 23.3345 17.4485 23.5607 17.4452C23.7883 17.448 24.014 17.4027 24.2229 17.3124C24.4318 17.2221 24.6193 17.0888 24.7732 16.9212C25.0929 16.5812 25.2709 16.1322 25.2709 15.6656C25.2709 15.1991 25.0929 14.75 24.7732 14.41C24.6173 14.2497 24.4301 14.1231 24.2233 14.0381C24.0164 13.9531 23.7943 13.9114 23.5706 13.9156ZM24.788 14.41C24.6302 14.2475 24.4414 14.1183 24.2327 14.0301C24.024 13.9418 23.7997 13.8964 23.5731 13.8964C23.3465 13.8964 23.1222 13.9418 22.9135 14.0301C22.7048 14.1183 22.516 14.2475 22.3582 14.41C22.0373 14.7495 21.8586 15.1987 21.8586 15.6656C21.8586 16.1325 22.0373 16.5817 22.3582 16.9212C22.5097 17.0891 22.6954 17.2227 22.9028 17.313C23.1102 17.4034 23.3345 17.4485 23.5607 17.4452C23.7883 17.448 24.014 17.4027 24.2229 17.3124C24.4318 17.2221 24.6193 17.0888 24.7732 16.9212C25.0929 16.5812 25.2709 16.1322 25.2709 15.6656C25.2709 15.1991 25.0929 14.75 24.7732 14.41H24.788ZM24.788 14.41C24.6302 14.2475 24.4414 14.1183 24.2327 14.0301C24.024 13.9418 23.7997 13.8964 23.5731 13.8964C23.3465 13.8964 23.1222 13.9418 22.9135 14.0301C22.7048 14.1183 22.516 14.2475 22.3582 14.41C22.0373 14.7495 21.8586 15.1987 21.8586 15.6656C21.8586 16.1325 22.0373 16.5817 22.3582 16.9212C22.5097 17.0891 22.6954 17.2227 22.9028 17.313C23.1102 17.4034 23.3345 17.4485 23.5607 17.4452C23.7883 17.448 24.014 17.4027 24.2229 17.3124C24.4318 17.2221 24.6193 17.0888 24.7732 16.9212C25.0929 16.5812 25.2709 16.1322 25.2709 15.6656C25.2709 15.1991 25.0929 14.75 24.7732 14.41H24.788Z" fill="white"/>
<path d="M45.3449 12.5018C44.8932 11.3994 44.2194 10.4016 43.3654 9.57041C42.5527 8.76544 41.5863 8.13184 40.5236 7.70724C39.461 7.28264 38.3238 7.0757 37.1795 7.09871C35.9309 7.10549 34.6985 7.38205 33.567 7.90943C32.4317 8.4223 31.4256 9.18236 30.6225 10.134L30.4245 10.3861C29.8503 11.1298 29.4069 11.9656 29.1131 12.8578C29.5664 13.7255 29.7976 14.6919 29.7862 15.6706C29.8118 16.9685 29.4044 18.2381 28.6282 19.2792V28.4294H38.0059V24.2918C40.0637 24.151 41.9938 23.2443 43.4149 21.7509C43.6079 21.5532 43.7959 21.3505 43.9642 21.1429C44.5475 20.452 45.0139 19.6705 45.3449 18.8294C44.7663 17.8495 44.47 16.7289 44.4887 15.5915C44.4756 14.5014 44.7725 13.43 45.3449 12.5018ZM41.6531 20.0158C41.1076 20.5974 40.4473 21.0597 39.714 21.3736C38.9806 21.6876 38.1901 21.8464 37.3923 21.8399C37.1251 21.8399 36.7292 21.8102 36.2096 21.7559V16.8817C36.5101 17.1505 36.8952 17.3061 37.2983 17.3216C37.5183 17.3261 37.7368 17.2844 37.9397 17.1992C38.1425 17.1141 38.3253 16.9874 38.4761 16.8273C38.6346 16.6691 38.76 16.481 38.8449 16.2739C38.9299 16.0668 38.9727 15.8449 38.9709 15.6211C38.9765 15.3997 38.9353 15.1797 38.85 14.9753C38.7647 14.7709 38.6373 14.5867 38.4761 14.4347C38.3169 14.2747 38.127 14.1485 37.9179 14.0635C37.7087 13.9786 37.4845 13.9367 37.2587 13.9404C36.1205 13.9404 35.5514 14.7247 35.5514 16.2934V25.9578H31.1025V16.1155C31.0794 14.9892 31.3165 13.8727 31.7953 12.8528C31.9907 12.4473 32.235 12.0671 32.5228 11.7208C33.0891 11.0517 33.7996 10.5193 34.6012 10.1636C35.7581 9.62822 37.0502 9.45548 38.3072 9.66815C39.5643 9.88082 40.7274 10.4689 41.6432 11.355C42.0067 11.7057 42.3243 12.101 42.5884 12.5315C43.1717 13.4881 43.472 14.5901 43.4545 15.7101C43.4686 16.815 43.1701 17.9013 42.5934 18.8442C42.3257 19.2693 42.0102 19.6624 41.6531 20.0158Z" fill="white"/>
<path d="M57.7067 15.6755C57.687 14.5267 58.0053 13.3974 58.6222 12.4277C58.2933 11.5956 57.8284 10.8238 57.2465 10.1438C56.9063 9.74477 56.5321 9.37593 56.1281 9.04146C54.4767 7.68762 52.3825 6.99165 50.2484 7.08748C48.1143 7.1833 46.091 8.06414 44.5679 9.56051C44.3555 9.76592 44.1555 9.98381 43.9691 10.213C43.3865 10.8989 42.9201 11.6754 42.5884 12.5117C43.1717 13.4683 43.472 14.5704 43.4545 15.6903C43.4686 16.7952 43.1701 17.8815 42.5934 18.8244C42.9192 19.669 43.3823 20.454 43.9642 21.1478C44.1374 21.3604 44.3254 21.568 44.5234 21.7707C45.3211 22.5922 46.279 23.2415 47.3378 23.6785C48.3967 24.1156 49.534 24.331 50.6796 24.3116C51.7675 24.3304 52.8484 24.134 53.86 23.7335C54.8716 23.333 55.7938 22.7365 56.5734 21.9783C57.4779 21.1231 58.1811 20.078 58.6321 18.9184C58.0116 17.9516 57.6897 16.8238 57.7067 15.6755ZM54.8612 20.1937C54.3086 20.7318 53.6542 21.1545 52.9362 21.4371C52.2182 21.7198 51.4511 21.8567 50.6796 21.8399C49.861 21.8576 49.0476 21.7059 48.2905 21.3946C47.5335 21.0832 46.849 20.6189 46.2802 20.0306C45.9195 19.6725 45.6053 19.2706 45.3449 18.8343C44.7663 17.8544 44.47 16.7339 44.4887 15.5964C44.4747 14.5047 44.7716 13.4314 45.3449 12.5018C45.6157 12.0734 45.9363 11.6785 46.3 11.3253C47.0868 10.5353 48.0747 9.97499 49.1569 9.7047C50.2392 9.43441 51.3748 9.46444 52.4413 9.79156C53.5077 10.1187 54.4645 10.7305 55.2084 11.5609C55.9523 12.3914 56.4551 13.409 56.6625 14.5039L55.3016 14.5533L52.1741 14.672C52.0074 14.4343 51.7849 14.241 51.526 14.1091C51.2672 13.9773 50.98 13.9108 50.6894 13.9156C50.4594 13.9071 50.23 13.9466 50.0161 14.0317C49.8022 14.1169 49.6085 14.2457 49.4473 14.41C49.2841 14.575 49.1562 14.7713 49.0711 14.9871C48.986 15.203 48.9457 15.4338 48.9525 15.6656C48.9427 15.903 48.9815 16.1399 49.0666 16.3617C49.1517 16.5836 49.2813 16.7857 49.4473 16.9558C49.6138 17.1257 49.8135 17.2594 50.0341 17.3487C50.2546 17.438 50.4912 17.481 50.729 17.4749C51.4812 17.4749 52.0157 17.0399 52.3275 16.1599L55.1977 16.0512L56.7219 15.9968C56.6669 17.0445 56.356 18.0628 55.8163 18.9628C55.5518 19.4122 55.2308 19.8258 54.8612 20.1937Z" fill="white"/>
<path d="M78.5704 7.23712C77.9961 7.14179 77.4155 7.08892 76.8334 7.07893C75.7933 7.04639 74.7582 7.23594 73.7973 7.63489C72.8364 8.03385 71.9718 8.63304 71.2612 9.39243C71.0245 9.64736 70.8078 9.92005 70.6129 10.2081C70.0579 11.0238 69.6647 11.9384 69.4549 12.9022C69.8941 13.7584 70.1183 14.7085 70.1081 15.6705C70.1264 16.8055 69.8153 17.9215 69.2124 18.8837V24.0644H78.5902V17.4897L79.1989 17.8308V15.0131C79.1711 13.6078 79.6972 12.2479 80.6637 11.2264V7.56832L78.5704 7.23712ZM78.1893 14.41C77.9356 14.2536 77.6459 14.1651 77.3481 14.1529C77.1493 14.147 76.9527 14.1948 76.7789 14.2913C76.3534 14.5319 76.1406 15.1004 76.1406 15.9968V21.5927H71.7065V15.1663C71.6916 14.3449 71.8257 13.5276 72.1024 12.7539C72.3207 12.1411 72.6569 11.5768 73.0922 11.093C73.5668 10.5862 74.1456 10.1882 74.7888 9.92618C75.4321 9.6642 76.1246 9.54451 76.8185 9.57534C77.2714 9.58539 77.7229 9.62835 78.1695 9.70387L78.1893 14.41Z" fill="white"/>
<path d="M90.4522 9.80275C89.2699 8.43164 87.6489 7.51161 85.8646 7.19892C84.0803 6.88623 82.2426 7.20016 80.6637 8.08739C79.6856 8.66836 78.8423 9.45019 78.1893 10.3811V14.4347C77.9356 14.2783 77.6459 14.1898 77.3481 14.1776C77.1493 14.1717 76.9527 14.2196 76.779 14.3161C76.779 14.5533 76.7493 14.8104 76.7493 15.0378V24.0644H92.2238V15.369C92.2189 13.0802 91.625 11.2067 90.4522 9.80275ZM89.7445 21.5927H85.3204V14.934C85.3204 14.2518 85.0383 13.9156 84.4791 13.9156C83.9199 13.9156 83.6477 14.2518 83.6477 14.934V21.5927H79.2187V15.0131C79.1856 13.6106 79.7044 12.251 80.6637 11.2264L80.7528 11.1276C81.2683 10.6067 81.886 10.198 82.5672 9.92696C83.2483 9.65594 83.9782 9.52849 84.711 9.55263C85.4439 9.57677 86.1638 9.75197 86.8256 10.0672C87.4874 10.3825 88.0768 10.831 88.5568 11.3846C89.3552 12.3371 89.7528 13.6652 89.7495 15.369L89.7445 21.5927Z" fill="white"/>
<path d="M106.585 3.04018C105.699 2.72218 104.765 2.55507 103.824 2.54584C102.768 2.54156 101.723 2.75192 100.751 3.1641C99.7795 3.57628 98.902 4.18166 98.1722 4.94338C97.4253 5.68637 96.8338 6.57026 96.4319 7.54366C96.0301 8.51706 95.8259 9.56055 95.8314 10.6135C95.8318 11.4487 95.945 12.2801 96.1679 13.0851L94.8961 12.2744V23.0312L96.3213 23.6986C97.3659 24.1982 98.5085 24.4599 99.6667 24.4648C100.969 24.4784 102.256 24.1819 103.422 23.6C104.587 23.018 105.596 22.1673 106.367 21.1182C106.937 20.3542 107.36 19.4908 107.614 18.5723C107.128 17.6847 106.88 16.687 106.892 15.6755C106.883 14.8837 107.029 14.0978 107.322 13.362C107.288 13.2681 107.248 13.1692 107.208 13.0753L107.416 13.1445C107.633 12.6691 107.912 12.2251 108.248 11.8246V3.61361L106.585 3.04018ZM103.759 20.342C103.222 20.8743 102.582 21.2931 101.879 21.5733C101.176 21.8536 100.423 21.9896 99.6667 21.9734C98.871 21.9682 98.0866 21.7858 97.3705 21.4395V16.8075C97.7288 17.0653 98.1522 17.2177 98.5928 17.2475C98.9733 17.2586 99.3447 17.1302 99.637 16.8866C99.771 16.7774 99.8785 16.6393 99.9514 16.4826C100.024 16.3259 100.061 16.1547 100.058 15.982C99.9319 15.4273 99.7036 14.9008 99.3846 14.4298C98.699 13.2856 98.3269 11.9813 98.3058 10.6481C98.2955 9.91318 98.4345 9.18384 98.7143 8.50413C98.9942 7.82441 99.4091 7.20841 99.9339 6.69334C100.433 6.16516 101.037 5.74582 101.706 5.46169C102.375 5.17755 103.096 5.03475 103.824 5.04225C104.489 5.04412 105.149 5.15603 105.778 5.37346V9.97576C105.52 9.87578 105.248 9.81577 104.972 9.79779C104.796 9.79604 104.622 9.83123 104.461 9.90106C104.3 9.9709 104.155 10.0738 104.036 10.2032C103.908 10.3329 103.807 10.4875 103.739 10.6574C103.672 10.8274 103.64 11.0092 103.645 11.1918C103.684 11.6307 103.831 12.0534 104.071 12.4227L104.437 13.0604C104.526 13.2137 104.61 13.3719 104.685 13.5251C105.158 14.41 105.414 15.3943 105.432 16.3972C105.437 17.1951 105.268 17.9846 104.937 18.7107C104.653 19.3309 104.253 19.8913 103.759 20.3618V20.342Z" fill="white"/>
<path d="M114.315 14.4298C114.157 14.2674 113.969 14.1383 113.761 14.0501C113.552 13.962 113.329 13.9165 113.102 13.9165C112.876 13.9165 112.652 13.962 112.444 14.0501C112.236 14.1383 112.047 14.2674 111.89 14.4298C111.568 14.7687 111.388 15.2181 111.388 15.6854C111.388 16.1526 111.568 16.6021 111.89 16.941C112.041 17.1088 112.227 17.2424 112.434 17.3328C112.642 17.4232 112.866 17.4682 113.092 17.465C113.322 17.4692 113.549 17.4246 113.76 17.3342C113.971 17.2439 114.16 17.1099 114.315 16.941C114.635 16.6009 114.813 16.1519 114.813 15.6854C114.813 15.2188 114.635 14.7698 114.315 14.4298ZM113.102 10.9694V11.8888C114.108 11.8888 115.072 12.2878 115.783 12.9979C116.494 13.7081 116.893 14.6712 116.893 15.6755H117.809C117.806 14.4312 117.31 13.2388 116.428 12.3594C115.547 11.48 114.353 10.9855 113.107 10.9842L113.102 10.9694ZM113.102 10.9694V11.8888C114.108 11.8888 115.072 12.2878 115.783 12.9979C116.494 13.7081 116.893 14.6712 116.893 15.6755H117.809C117.806 14.4312 117.31 13.2388 116.428 12.3594C115.547 11.48 114.353 10.9855 113.107 10.9842L113.102 10.9694ZM114.315 14.4298C114.157 14.2674 113.969 14.1383 113.761 14.0501C113.552 13.962 113.329 13.9165 113.102 13.9165C112.876 13.9165 112.652 13.962 112.444 14.0501C112.236 14.1383 112.047 14.2674 111.89 14.4298C111.568 14.7687 111.388 15.2181 111.388 15.6854C111.388 16.1526 111.568 16.6021 111.89 16.941C112.041 17.1088 112.227 17.2424 112.434 17.3328C112.642 17.4232 112.866 17.4682 113.092 17.465C113.322 17.4692 113.549 17.4246 113.76 17.3342C113.971 17.2439 114.16 17.1099 114.315 16.941C114.635 16.6009 114.813 16.1519 114.813 15.6854C114.813 15.2188 114.635 14.7698 114.315 14.4298ZM114.315 14.4298C114.157 14.2674 113.969 14.1383 113.761 14.0501C113.552 13.962 113.329 13.9165 113.102 13.9165C112.876 13.9165 112.652 13.962 112.444 14.0501C112.236 14.1383 112.047 14.2674 111.89 14.4298C111.568 14.7687 111.388 15.2181 111.388 15.6854C111.388 16.1526 111.568 16.6021 111.89 16.941C112.041 17.1088 112.227 17.2424 112.434 17.3328C112.642 17.4232 112.866 17.4682 113.092 17.465C113.322 17.4692 113.549 17.4246 113.76 17.3342C113.971 17.2439 114.16 17.1099 114.315 16.941C114.635 16.6009 114.813 16.1519 114.813 15.6854C114.813 15.2188 114.635 14.7698 114.315 14.4298ZM113.102 10.9694V11.8888C114.108 11.8888 115.072 12.2878 115.783 12.9979C116.494 13.7081 116.893 14.6712 116.893 15.6755H117.809C117.806 14.4312 117.31 13.2388 116.428 12.3594C115.547 11.48 114.353 10.9855 113.107 10.9842L113.102 10.9694ZM113.102 10.9694V11.8888C114.108 11.8888 115.072 12.2878 115.783 12.9979C116.494 13.7081 116.893 14.6712 116.893 15.6755H117.809C117.806 14.4312 117.31 13.2388 116.428 12.3594C115.547 11.48 114.353 10.9855 113.107 10.9842L113.102 10.9694ZM113.102 13.9008C112.878 13.895 112.654 13.9359 112.447 14.021C112.239 14.1061 112.051 14.2335 111.895 14.3951C111.573 14.7341 111.393 15.1835 111.393 15.6508C111.393 16.118 111.573 16.5675 111.895 16.9064C112.046 17.0742 112.232 17.2078 112.439 17.2982C112.647 17.3886 112.871 17.4336 113.097 17.4304C113.323 17.4383 113.548 17.3988 113.758 17.3145C113.968 17.2302 114.157 17.103 114.315 16.941C114.635 16.6009 114.813 16.1519 114.813 15.6854C114.813 15.2188 114.635 14.7698 114.315 14.4298C114.159 14.2647 113.971 14.1337 113.763 14.0452C113.554 13.9567 113.329 13.9125 113.102 13.9156V13.9008ZM120.897 16.1698V11.8246C120.472 11.0054 119.921 10.258 119.263 9.60995C118.994 9.3391 118.708 9.08487 118.407 8.84866C116.929 7.67846 115.092 7.05339 113.206 7.07893C111.448 7.05168 109.723 7.55662 108.258 8.52734C107.809 8.82838 107.388 9.1692 107.001 9.54568C105.875 10.6222 105.075 11.9923 104.69 13.5004C105.163 14.3853 105.419 15.3696 105.437 16.3725C105.442 17.1704 105.273 17.9599 104.942 18.686C105.271 19.5703 105.749 20.3914 106.357 21.1132C107.128 22.0478 108.085 22.8119 109.167 23.3568C110.249 23.9018 111.433 24.2156 112.643 24.2784C113.854 24.3412 115.064 24.1515 116.197 23.7215C117.33 23.2914 118.361 22.6304 119.224 21.7806C119.417 21.5878 119.6 21.39 119.768 21.1923C120.411 20.4462 120.914 19.5905 121.253 18.6662C120.992 17.8657 120.871 17.0262 120.897 16.1847V16.1698ZM117.497 20.0158C116.327 21.1672 114.75 21.8126 113.107 21.8126C111.465 21.8126 109.888 21.1672 108.718 20.0158C108.282 19.587 107.91 19.0975 107.614 18.5624C107.13 17.6777 106.881 16.6837 106.892 15.6755C106.883 14.8837 107.029 14.0978 107.322 13.362C107.348 13.2874 107.38 13.2147 107.416 13.1445C107.633 12.6691 107.912 12.2251 108.248 11.8246C108.394 11.6516 108.549 11.4866 108.713 11.3302C109.307 10.749 110.011 10.2928 110.785 9.98881C111.558 9.6848 112.385 9.53915 113.216 9.56051C114.02 9.55018 114.817 9.70553 115.558 10.0168C116.298 10.3281 116.967 10.7887 117.522 11.3698C117.865 11.7093 118.167 12.0875 118.422 12.4969C119.022 13.4529 119.333 14.5619 119.318 15.6903C119.331 16.6648 119.103 17.6275 118.655 18.4932C118.348 19.0608 117.958 19.5791 117.497 20.0306V20.0158ZM113.107 10.9694V11.8888C114.113 11.8888 115.077 12.2878 115.788 12.9979C116.499 13.7081 116.898 14.6712 116.898 15.6755H117.813C117.811 14.4304 117.314 13.2372 116.432 12.3576C115.549 11.4781 114.354 10.9842 113.107 10.9842V10.9694ZM113.107 13.9008C112.883 13.895 112.659 13.9359 112.451 14.021C112.244 14.1061 112.056 14.2335 111.9 14.3951C111.578 14.7341 111.398 15.1835 111.398 15.6508C111.398 16.118 111.578 16.5675 111.9 16.9064C112.051 17.0742 112.237 17.2078 112.444 17.2982C112.652 17.3886 112.876 17.4336 113.102 17.4304C113.327 17.4376 113.551 17.3977 113.76 17.3135C113.969 17.2292 114.158 17.1023 114.315 16.941C114.635 16.6009 114.813 16.1519 114.813 15.6854C114.813 15.2188 114.635 14.7698 114.315 14.4298C114.159 14.2647 113.971 14.1337 113.763 14.0452C113.554 13.9567 113.329 13.9125 113.102 13.9156L113.107 13.9008ZM114.325 14.3951C114.167 14.2328 113.979 14.1037 113.771 14.0155C113.562 13.9274 113.338 13.8819 113.112 13.8819C112.886 13.8819 112.662 13.9274 112.454 14.0155C112.246 14.1037 112.057 14.2328 111.9 14.3951C111.578 14.7341 111.398 15.1835 111.398 15.6508C111.398 16.118 111.578 16.5675 111.9 16.9064C112.051 17.0742 112.237 17.2078 112.444 17.2982C112.652 17.3886 112.876 17.4336 113.102 17.4304C113.327 17.4376 113.551 17.3977 113.76 17.3135C113.969 17.2292 114.158 17.1023 114.315 16.941C114.635 16.6009 114.813 16.1519 114.813 15.6854C114.813 15.2188 114.635 14.7698 114.315 14.4298L114.325 14.3951ZM113.112 10.9348V11.8542C114.118 11.8542 115.082 12.2532 115.793 12.9633C116.504 13.6735 116.903 14.6366 116.903 15.6409H117.818C117.807 14.4009 117.305 13.2158 116.423 12.3436C115.54 11.4715 114.349 10.9828 113.107 10.9842L113.112 10.9348ZM113.112 10.9348V11.8542C114.118 11.8542 115.082 12.2532 115.793 12.9633C116.504 13.6735 116.903 14.6366 116.903 15.6409H117.818C117.807 14.4009 117.305 13.2158 116.423 12.3436C115.54 11.4715 114.349 10.9828 113.107 10.9842L113.112 10.9348ZM114.325 14.3951C114.167 14.2328 113.979 14.1037 113.771 14.0155C113.562 13.9274 113.338 13.8819 113.112 13.8819C112.886 13.8819 112.662 13.9274 112.454 14.0155C112.246 14.1037 112.057 14.2328 111.9 14.3951C111.578 14.7341 111.398 15.1835 111.398 15.6508C111.398 16.118 111.578 16.5675 111.9 16.9064C112.051 17.0742 112.237 17.2078 112.444 17.2982C112.652 17.3886 112.876 17.4336 113.102 17.4304C113.327 17.4376 113.551 17.3977 113.76 17.3135C113.969 17.2292 114.158 17.1023 114.315 16.941C114.635 16.6009 114.813 16.1519 114.813 15.6854C114.813 15.2188 114.635 14.7698 114.315 14.4298L114.325 14.3951Z" fill="white"/>
<path d="M118.422 7.49419V12.4821C119.022 13.4381 119.333 14.5471 119.318 15.6755C119.331 16.65 119.103 17.6127 118.655 18.4784C118.85 19.4495 119.233 20.373 119.783 21.1973C119.912 21.3851 120.05 21.568 120.199 21.746C120.87 22.529 121.691 23.1709 122.613 23.6344C123.534 24.0979 124.539 24.3738 125.569 24.446C126.598 24.5182 127.632 24.3853 128.61 24.055C129.587 23.7248 130.49 23.2037 131.264 22.5221C131.408 22.3997 131.545 22.2693 131.675 22.1316C132.733 21.0576 133.451 19.6958 133.738 18.2164V15.0131C133.737 14.539 133.79 14.0662 133.897 13.6042V7.49419H118.422ZM131.422 16.5406C131.424 17.0131 131.37 17.4841 131.264 17.9445C131.043 18.8784 130.569 19.7336 129.893 20.4162C129.415 20.9264 128.835 21.3305 128.191 21.6022C127.546 21.8738 126.851 22.0071 126.152 21.9932C125.38 22.0186 124.613 21.8665 123.909 21.5485C123.206 21.2304 122.585 20.7551 122.094 20.1592C121.732 19.7199 121.455 19.217 121.278 18.6761C121.009 17.8802 120.88 17.0441 120.897 16.2044V9.96588H125.326V16.6246C125.326 17.292 125.603 17.6133 126.167 17.6133C126.731 17.6133 126.993 17.2772 126.993 16.6246V9.96588H131.422V16.5406Z" fill="white"/>
<path d="M145.927 15.7002C145.918 14.7952 146.117 13.9003 146.511 13.0852C146.311 12.0991 145.92 11.1618 145.358 10.3267C145.236 10.1473 145.106 9.97406 144.967 9.80769C144.296 9.02362 143.475 8.38068 142.553 7.91628C141.631 7.45188 140.626 7.1753 139.596 7.10262C138.565 7.02994 137.531 7.16261 136.553 7.49292C135.574 7.82323 134.672 8.34458 133.897 9.02664C133.753 9.15022 133.62 9.27875 133.486 9.41716C132.425 10.495 131.707 11.8624 131.422 13.3472V16.5554C131.424 17.0279 131.37 17.499 131.264 17.9593V24.0644H146.739V18.7849C146.19 17.8506 145.909 16.7834 145.927 15.7002ZM144.264 21.5927H139.835V14.934C139.835 14.2518 139.553 13.9156 138.994 13.9156C138.435 13.9156 138.167 14.2518 138.167 14.934V21.5927H133.738V15.0131C133.737 14.5389 133.79 14.0662 133.897 13.6042C134.118 12.6713 134.59 11.8165 135.263 11.1325C135.777 10.6105 136.393 10.2003 137.074 9.92756C137.754 9.65487 138.484 9.52561 139.217 9.54789C139.949 9.57017 140.67 9.74351 141.332 10.057C141.995 10.3706 142.585 10.8175 143.067 11.3698C143.443 11.8248 143.727 12.3487 143.903 12.9121C144.158 13.7006 144.28 14.5258 144.264 15.3542V21.5927Z" fill="white"/>
<path d="M151.371 2.96603V7.10365C149.319 7.24518 147.396 8.15427 145.986 9.6495C145.772 9.86273 145.569 10.0871 145.378 10.3218C144.738 11.0945 144.245 11.9774 143.923 12.927C144.177 13.7154 144.3 14.5406 144.284 15.369V19.4275C144.709 20.317 145.285 21.1264 145.986 21.8201C146.219 22.0476 146.463 22.2622 146.719 22.4628C147.993 23.4446 149.512 24.0594 151.111 24.2407C152.71 24.4219 154.328 24.1627 155.79 23.491C156.935 22.9812 157.949 22.217 158.754 21.2566C160.111 19.5589 160.813 17.4313 160.733 15.2602V2.96603H151.371ZM158.274 15.2751C158.352 16.8652 157.855 18.4302 156.874 19.6846C156.309 20.3566 155.598 20.8909 154.795 21.2467C153.638 21.7782 152.348 21.9489 151.092 21.7364C149.837 21.5238 148.675 20.938 147.758 20.0553C147.375 19.6776 147.043 19.2522 146.768 18.7898C146.218 17.8541 145.938 16.785 145.957 15.7002C145.947 14.7952 146.147 13.9003 146.541 13.0852C146.837 12.4521 147.237 11.8725 147.723 11.3698C148.27 10.7886 148.931 10.3265 149.666 10.0126C150.4 9.69872 151.191 9.53975 151.989 9.54569C152.246 9.54569 152.642 9.5704 153.172 9.61984V14.4891C152.867 14.2287 152.484 14.0789 152.083 14.0639C151.863 14.0598 151.645 14.1017 151.442 14.1868C151.239 14.2719 151.056 14.3985 150.905 14.5583C150.745 14.7252 150.621 14.9232 150.541 15.1401C150.461 15.357 150.427 15.5881 150.44 15.8188C150.436 16.0386 150.478 16.2567 150.563 16.4594C150.648 16.662 150.775 16.8445 150.935 16.9954C151.095 17.1555 151.286 17.2818 151.496 17.3668C151.706 17.4517 151.931 17.4935 152.157 17.4897C153.296 17.4897 153.86 16.7037 153.86 15.1367V5.43773H158.289L158.274 15.2751Z" fill="white"/>
<path d="M62.2298 12.0075V18.8096L67.3418 15.5321V15.4086L62.2298 12.0075ZM62.2298 12.0075V18.8096L67.3418 15.5321V15.4086L62.2298 12.0075ZM62.2298 12.0075V18.8096L67.3418 15.5321V15.4086L62.2298 12.0075ZM62.2298 12.0075V18.8096L67.3418 15.5321V15.4086L62.2298 12.0075ZM70.6426 10.213C70.4743 10.0054 70.2912 9.80769 70.0982 9.60996C69.3151 8.7973 68.3736 8.15348 67.3319 7.71818C66.2901 7.28288 65.1701 7.06533 64.041 7.07894C62.8908 7.05593 61.7476 7.26272 60.6786 7.68717C59.6095 8.11163 58.6361 8.74518 57.8156 9.55063C57.6189 9.74024 57.4323 9.9399 57.2564 10.1488C56.672 10.827 56.2008 11.5948 55.8608 12.4227C56.2607 13.0608 56.536 13.7686 56.6724 14.5089L55.3115 14.5583C55.2658 14.9306 55.2427 15.3053 55.2422 15.6804C55.2422 15.809 55.2422 15.9326 55.2422 16.0561L56.7664 16.0018C56.7115 17.0495 56.4005 18.0678 55.8608 18.9678C56.2058 19.7975 56.6839 20.5656 57.2761 21.2418C57.4395 21.4296 57.6077 21.6175 57.771 21.7954C59.2702 23.2736 61.2535 24.1612 63.3558 24.2947C65.458 24.4282 67.5378 23.7987 69.2124 22.5221C69.5001 22.2978 69.7744 22.0568 70.0339 21.8004C70.7037 21.1492 71.2621 20.3927 71.6867 19.561V15.1614C71.6718 14.34 71.8059 13.5227 72.0826 12.749C71.7569 11.823 71.2656 10.9638 70.6327 10.213H70.6426ZM69.2322 18.8887C68.9628 19.3035 68.6474 19.6866 68.2919 20.0306C67.1217 21.1821 65.545 21.8275 63.9024 21.8275C62.2599 21.8275 60.6832 21.1821 59.513 20.0306C59.1725 19.6961 58.8704 19.3247 58.6123 18.9233C57.9918 17.9566 57.6699 16.8287 57.6869 15.6804C57.6672 14.5316 57.9855 13.4023 58.6024 12.4326C59.1843 11.5328 59.9865 10.7963 60.9331 10.2929C61.8796 9.78939 62.9391 9.53562 64.0113 9.55558C64.8144 9.5458 65.6109 9.7009 66.3515 10.0113C67.0921 10.3217 67.761 10.7807 68.3167 11.3599C68.7765 11.8134 69.1608 12.3374 69.4549 12.9121C69.8941 13.7683 70.1183 14.7184 70.1081 15.6804C70.1314 16.8118 69.8272 17.9258 69.2322 18.8887ZM62.2298 18.8096L67.3418 15.5321V15.4086L62.2298 12.0075V18.8096ZM62.2298 12.0075V18.8096L67.3418 15.5321V15.4086L62.2298 12.0075ZM62.2298 12.0075V18.8096L67.3418 15.5321V15.4086L62.2298 12.0075Z" fill="white"/>
<path d="M113.107 10.9842V11.9037C114.113 11.9037 115.077 12.3026 115.788 13.0128C116.499 13.7229 116.898 14.686 116.898 15.6903H117.813C117.814 15.0725 117.693 14.4607 117.457 13.8897C117.22 13.3188 116.874 12.8 116.437 12.3629C116 11.9258 115.481 11.5791 114.909 11.3425C114.338 11.106 113.726 10.9842 113.107 10.9842Z" fill="white"/>
<path d="M62.2298 12.0075L67.3418 15.4085V15.5321L62.2298 18.8096V12.0075Z" fill="white"/>
<path d="M67.3418 15.4085V15.5321L62.2298 18.8096V12.0075L67.3418 15.4085Z" fill="white"/>
<path d="M117.813 15.6903H116.898C116.898 14.686 116.499 13.7229 115.788 13.0128C115.077 12.3026 114.113 11.9037 113.107 11.9037V10.9842C113.726 10.9842 114.338 11.106 114.909 11.3425C115.481 11.5791 116 11.9258 116.437 12.3629C116.874 12.8 117.22 13.3188 117.457 13.8897C117.693 14.4607 117.814 15.0725 117.813 15.6903Z" fill="white"/>
</svg>
