<svg width="78" height="70" viewBox="0 0 78 70" fill="none" xmlns="http://www.w3.org/2000/svg">
<g clip-path="url(#clip0_3_266)">
<path d="M24.7602 33.8048L27.1709 58.1608L21.4633 54.099C21.4083 54.0597 21.3616 54.0096 21.326 53.9517C21.2905 53.8938 21.2668 53.8292 21.2563 53.7617L17.6738 30.0448C17.67 30.008 17.6758 29.9709 17.6907 29.9371C17.7057 29.9033 17.7291 29.8742 17.7587 29.8526C17.7883 29.8309 17.8229 29.8176 17.8592 29.814C17.8955 29.8104 17.9321 29.8165 17.9653 29.8318L24.7602 33.8048Z" fill="white"/>
<path d="M38.3937 41.7953V66.1512L32.517 61.9711V61.9652L31.249 37.6093L38.3937 41.7953Z" fill="white"/>
<path d="M39.6063 41.7953L46.7481 37.6093L45.483 61.9652L39.6063 66.1512V41.7953Z" fill="white"/>
<path d="M38.9796 3.84583V7.39582C32.7283 7.40161 26.6531 9.49803 21.694 13.3607C16.735 17.2234 13.1685 22.637 11.5464 28.7638L13.7006 28.4266C13.7713 28.4148 13.8436 28.4175 13.9133 28.4344C13.983 28.4513 14.0486 28.4822 14.1064 28.5251C14.1642 28.5681 14.213 28.6223 14.2499 28.6846C14.2869 28.747 14.3112 28.8161 14.3215 28.8881L14.8666 32.4588L17.6883 50.9661L18.1868 54.2203C18.2203 54.4473 18.1641 54.6785 18.0303 54.8636C17.8965 55.0487 17.696 55.1726 17.4726 55.2083L13.4965 55.8326C13.2531 55.87 13.005 55.8083 12.8063 55.6609C12.6075 55.5135 12.4742 55.2924 12.4355 55.0456L12.1877 53.4038C11.9749 53.4363 11.7621 53.457 11.5464 53.4748C8.9464 53.6376 6.37621 52.8399 4.31065 51.2291C2.2451 49.6184 0.823744 47.3034 0.309187 44.7119C-0.20537 42.1203 0.22164 39.4274 1.51133 37.1305C2.80102 34.8336 4.86623 33.088 7.32543 32.2162C8.2924 24.3864 12.0418 17.1839 17.8699 11.9604C23.6979 6.73695 31.2041 3.85158 38.9796 3.84583Z" fill="white"/>
<path d="M55.4903 24.069H55.3853C55.1794 23.094 54.6504 22.2202 53.8866 21.593C53.1227 20.9659 52.1702 20.6234 51.1877 20.6225H51.1002C50.8981 19.6431 50.3699 18.7641 49.6044 18.1332C48.8389 17.5024 47.8829 17.1581 46.8968 17.1583H46.7802C46.5589 16.0023 46.0208 14.933 45.2277 14.0734C44.4346 13.2137 43.4186 12.5986 42.2964 12.2986C41.1743 11.9986 39.9916 12.0259 38.884 12.3774C37.7765 12.729 36.7892 13.3904 36.0354 14.2858C35.1855 13.8454 34.2384 13.634 33.2849 13.6718C32.3313 13.7095 31.4034 13.9953 30.5899 14.5016C29.7764 15.0079 29.1048 15.7178 28.6393 16.5633C28.1738 17.4087 27.9302 18.3613 27.9317 19.3297C27.9317 19.4126 27.9317 19.4895 27.9317 19.5694C27.5595 19.4648 27.1752 19.4111 26.789 19.4096C25.6535 19.412 24.5652 19.871 23.7626 20.6861C22.9599 21.5012 22.5084 22.606 22.5068 23.7584C22.5068 23.8619 22.5068 23.9654 22.5214 24.0542H22.5068C21.9419 24.0546 21.3825 24.168 20.8608 24.3881C20.339 24.6081 19.8652 24.9305 19.4664 25.3366C19.0675 25.7427 18.7515 26.2247 18.5365 26.7549C18.3214 27.2851 18.2115 27.8532 18.213 28.4266L24.6552 32.2014L39 40.609L53.3448 32.2044L59.787 28.4266C59.7854 27.2709 59.3322 26.1629 58.5266 25.346C57.7211 24.529 56.6291 24.0698 55.4903 24.069Z" fill="white"/>
<path d="M53.2399 33.796L50.8262 58.1519L56.5338 54.0901C56.5891 54.0511 56.6359 54.0011 56.6715 53.9431C56.7071 53.8851 56.7307 53.8204 56.7408 53.7528L60.3408 30.0359C60.3467 29.9967 60.3416 29.9566 60.3259 29.9203C60.3103 29.8839 60.2849 29.8528 60.2525 29.8305C60.2202 29.8083 60.1823 29.7957 60.1433 29.7944C60.1042 29.793 60.0656 29.8029 60.0319 29.8229L53.2399 33.796Z" fill="white"/>
<path d="M77.796 44.7299C77.2821 47.3397 75.8469 49.6691 73.7598 51.2805C71.6728 52.8919 69.0778 53.6743 66.4624 53.4807C66.2437 53.4629 66.0339 53.4422 65.8211 53.4097L65.5704 55.0516C65.533 55.2978 65.4009 55.5189 65.2031 55.6665C65.0053 55.814 64.7579 55.8758 64.5151 55.8385L60.5332 55.2143C60.4225 55.197 60.3163 55.1576 60.2206 55.0986C60.1248 55.0395 60.0416 54.9619 59.9755 54.8701C59.9094 54.7783 59.8618 54.6741 59.8355 54.5637C59.8091 54.4532 59.8046 54.3385 59.822 54.2262L60.3175 50.972L63.1393 32.4647L63.6844 28.894C63.7066 28.7494 63.7845 28.6196 63.9009 28.5331C64.0172 28.4466 64.1627 28.4104 64.3053 28.4325L66.4624 28.7638C64.8381 22.6326 61.267 17.2159 56.3022 13.3529C51.3374 9.48991 45.256 7.3961 39 7.39582V3.84583C46.7789 3.84598 54.2899 6.72897 60.122 11.9531C65.954 17.1772 69.7055 24.3829 70.6717 32.2162C73.1545 33.0676 75.247 34.8072 76.5581 37.1102C77.8692 39.4131 78.3093 42.1218 77.796 44.7299Z" fill="white"/>
</g>
<defs>
<clipPath id="clip0_3_266">
<rect width="78" height="70" fill="white"/>
</clipPath>
</defs>
</svg>
