<svg width="24" height="24" viewBox="0 0 24 24" fill="none" xmlns="http://www.w3.org/2000/svg">
<path d="M18 15C18.7956 15 19.5587 15.3161 20.1213 15.8787C20.6839 16.4413 21 17.2044 21 18C21 18.7957 20.6839 19.5587 20.1213 20.1213C19.5587 20.6839 18.7956 21 18 21C16.69 21 15.58 20.17 15.17 19H14V17H15.17C15.58 15.83 16.69 15 18 15ZM18 17C17.7348 17 17.4804 17.1054 17.2929 17.2929C17.1054 17.4804 17 17.7348 17 18C17 18.2652 17.1054 18.5196 17.2929 18.7071C17.4804 18.8947 17.7348 19 18 19C18.2652 19 18.5196 18.8947 18.7071 18.7071C18.8946 18.5196 19 18.2652 19 18C19 17.7348 18.8946 17.4804 18.7071 17.2929C18.5196 17.1054 18.2652 17 18 17ZM18 8.00001C18.3793 8.00001 18.743 7.84935 19.0112 7.58117C19.2793 7.31299 19.43 6.94927 19.43 6.57001C19.43 5.78001 18.79 5.14001 18 5.14001C17.21 5.14001 16.57 5.78001 16.57 6.57001C16.57 6.94927 16.7207 7.31299 16.9888 7.58117C17.257 7.84935 17.6207 8.00001 18 8.00001ZM18 2.57001C19.0609 2.57001 20.0783 2.99143 20.8284 3.74158C21.5786 4.49173 22 5.50914 22 6.57001C22 9.56001 18 14 18 14C18 14 14 9.56001 14 6.57001C14 5.50914 14.4214 4.49173 15.1716 3.74158C15.9217 2.99143 16.9391 2.57001 18 2.57001ZM8.83 17H10V19H8.83C8.42 20.17 7.31 21 6 21C5.20435 21 4.44129 20.6839 3.87868 20.1213C3.31607 19.5587 3 18.7957 3 18C3 16.69 3.83 15.58 5 15.17V14H7V15.17C7.85 15.47 8.53 16.15 8.83 17ZM6 17C5.73478 17 5.48043 17.1054 5.29289 17.2929C5.10536 17.4804 5 17.7348 5 18C5 18.2652 5.10536 18.5196 5.29289 18.7071C5.48043 18.8947 5.73478 19 6 19C6.26522 19 6.51957 18.8947 6.70711 18.7071C6.89464 18.5196 7 18.2652 7 18C7 17.7348 6.89464 17.4804 6.70711 17.2929C6.51957 17.1054 6.26522 17 6 17ZM6 3.00001C6.79565 3.00001 7.55871 3.31608 8.12132 3.87869C8.68393 4.4413 9 5.20436 9 6.00001C9 7.31001 8.17 8.42001 7 8.83001V10H5V8.83001C3.83 8.42001 3 7.31001 3 6.00001C3 5.20436 3.31607 4.4413 3.87868 3.87869C4.44129 3.31608 5.20435 3.00001 6 3.00001ZM6 5.00001C5.73478 5.00001 5.48043 5.10536 5.29289 5.2929C5.10536 5.48044 5 5.73479 5 6.00001C5 6.26522 5.10536 6.51958 5.29289 6.70711C5.48043 6.89465 5.73478 7.00001 6 7.00001C6.26522 7.00001 6.51957 6.89465 6.70711 6.70711C6.89464 6.51958 7 6.26522 7 6.00001C7 5.73479 6.89464 5.48044 6.70711 5.2929C6.51957 5.10536 6.26522 5.00001 6 5.00001ZM11 19V17H13V19H11ZM7 13H5V11H7V13Z" fill="white"/>
</svg>
